<?xml version="1.0" encoding="UTF-8"?>
<svg width="22px" height="28px" viewBox="0 0 22 28" version="1.1" xmlns="http://www.w3.org/2000/svg" xmlns:xlink="http://www.w3.org/1999/xlink">
    <!-- Generator: Sketch 46.2 (44496) - http://www.bohemiancoding.com/sketch -->
    <title>Atoms/Icons/Mobile/Dark</title>
    <desc>Created with Sketch.</desc>
    <defs></defs>
    <g id="WEBB" stroke="none" stroke-width="1" fill="none" fill-rule="evenodd">
        <g id="0_Ladda-kontantkort_fastpris" transform="translate(-441.000000, -246.000000)" fill="#990ae3">
            <g id="Molecules/List/Icon-panel---2-row" transform="translate(419.000000, 228.000000)">
                <g id="Group-9" transform="translate(16.000000, 16.000000)">
                    <g id="Atoms/Icons/Subscription/Dark" transform="translate(0.943333, 0.000000)">
                        <path d="M21.2953465,2 L7.8510292,2 C6.83444566,2 6,2.82242433 6,3.82436261 L6,19.0746981 L6,28.1756374 C6,29.1817504 6.83444566,30 7.8510292,30 L25.1456567,30 C26.166476,30 26.9966859,29.1775757 26.9966859,28.1756374 L26.9966859,19.0746981 L26.9966859,7.65260176 L21.2953465,2 L21.2953465,2 Z M10.9431375,26.0465186 C10.9431375,26.5516624 10.5280325,26.9607872 10.015505,26.9607872 C9.50297745,26.9607872 9.0878725,26.5516624 9.0878725,26.0465186 L9.0878725,24.7064261 C9.0878725,24.2012822 9.50297745,23.7921574 10.015505,23.7921574 C10.5280325,23.7921574 10.9431375,24.2012822 10.9431375,24.7064261 L10.9431375,26.0465186 L10.9431375,26.0465186 Z M10.9431375,21.5085731 C10.9431375,22.013717 10.5280325,22.4228418 10.015505,22.4228418 C9.50297745,22.4228418 9.0878725,22.013717 9.0878725,21.5085731 L9.0878725,20.1684807 C9.0878725,19.6633368 9.50297745,19.254212 10.015505,19.254212 C10.5280325,19.254212 10.9431375,19.6633368 10.9431375,20.1684807 L10.9431375,21.5085731 L10.9431375,21.5085731 Z M10.9431375,16.9748024 C10.9431375,17.4799463 10.5280325,17.8890711 10.015505,17.8890711 C9.50297745,17.8890711 9.0878725,17.4799463 9.0878725,16.9748024 L9.0878725,15.63471 C9.0878725,15.1295661 9.50297745,14.7204413 10.015505,14.7204413 C10.5280325,14.7204413 10.9431375,15.1295661 10.9431375,15.63471 L10.9431375,16.9748024 L10.9431375,16.9748024 Z M14.8781629,26.9607872 L13.255865,26.9607872 C12.7433375,26.9607872 12.3282325,26.5516624 12.3282325,26.0465186 C12.3282325,25.5413747 12.7433375,25.1322499 13.255865,25.1322499 L14.8781629,25.1322499 C15.3906905,25.1322499 15.8057954,25.5413747 15.8057954,26.0465186 C15.8057954,26.5516624 15.3906905,26.9607872 14.8781629,26.9607872 L14.8781629,26.9607872 Z M14.8781629,16.5489787 L13.255865,16.5489787 C12.7433375,16.5489787 12.3282325,16.1398539 12.3282325,15.63471 C12.3282325,15.1295661 12.7433375,14.7204413 13.255865,14.7204413 L14.8781629,14.7204413 C15.3906905,14.7204413 15.8057954,15.1295661 15.8057954,15.63471 C15.8057954,16.1398539 15.3906905,16.5489787 14.8781629,16.5489787 L14.8781629,16.5489787 Z M19.7408209,26.9607872 L18.118523,26.9607872 C17.6059954,26.9607872 17.1908905,26.5516624 17.1908905,26.0465186 C17.1908905,25.5413747 17.6059954,25.1322499 18.118523,25.1322499 L19.7408209,25.1322499 C20.2533484,25.1322499 20.6684533,25.5413747 20.6684533,26.0465186 C20.6684533,26.5516624 20.2533484,26.9607872 19.7408209,26.9607872 L19.7408209,26.9607872 Z M19.7408209,16.5489787 L18.118523,16.5489787 C17.6059954,16.5489787 17.1908905,16.1398539 17.1908905,15.63471 C17.1908905,15.1295661 17.6059954,14.7204413 18.118523,14.7204413 L19.7408209,14.7204413 C20.2533484,14.7204413 20.6684533,15.1295661 20.6684533,15.63471 C20.6684533,16.1398539 20.2533484,16.5489787 19.7408209,16.5489787 L19.7408209,16.5489787 Z M23.9130491,26.0465186 C23.9130491,26.5516624 23.4979442,26.9607872 22.9854167,26.9607872 C22.4728891,26.9607872 22.0577842,26.5516624 22.0577842,26.0465186 L22.0577842,24.7064261 C22.0577842,24.2012822 22.4728891,23.7921574 22.9854167,23.7921574 C23.4979442,23.7921574 23.9130491,24.2012822 23.9130491,24.7064261 L23.9130491,26.0465186 L23.9130491,26.0465186 Z M23.9130491,21.5085731 C23.9130491,22.013717 23.4979442,22.4228418 22.9854167,22.4228418 C22.4728891,22.4228418 22.0577842,22.013717 22.0577842,21.5085731 L22.0577842,20.1684807 C22.0577842,19.6633368 22.4728891,19.254212 22.9854167,19.254212 C23.4979442,19.254212 23.9130491,19.6633368 23.9130491,20.1684807 L23.9130491,21.5085731 L23.9130491,21.5085731 Z M23.9130491,16.9748024 C23.9130491,17.4799463 23.4979442,17.8890711 22.9854167,17.8890711 C22.4728891,17.8890711 22.0577842,17.4799463 22.0577842,16.9748024 L22.0577842,15.63471 C22.0577842,15.1295661 22.4728891,14.7204413 22.9854167,14.7204413 C23.4979442,14.7204413 23.9130491,15.1295661 23.9130491,15.63471 L23.9130491,16.9748024 L23.9130491,16.9748024 Z" id="Shape"></path>
                    </g>
                </g>
            </g>
        </g>
    </g>
</svg>