<?xml version="1.0" encoding="UTF-8"?>
<svg width="29px" height="22px" viewBox="0 0 29 22" version="1.1" xmlns="http://www.w3.org/2000/svg" xmlns:xlink="http://www.w3.org/1999/xlink">
    <!-- Generator: Sketch 46.2 (44496) - http://www.bohemiancoding.com/sketch -->
    <title>Atoms/Icons/Mobile/Dark</title>
    <desc>Created with Sketch.</desc>
    <defs></defs>
    <g id="WEBB" stroke="none" stroke-width="1" fill="none" fill-rule="evenodd">
        <g id="0_Ladda-kontantkort_fastpris" transform="translate(-736.000000, -249.000000)" fill="#990ae3">
            <g id="Molecules/List/Icon-panel---2-row" transform="translate(718.000000, 228.000000)">
                <g id="Group-10" transform="translate(17.000000, 17.000000)">
                    <g id="Atoms/Icons/Mobile/Dark" transform="translate(0.943333, 4.000000)">
                        <path d="M14.9244745,16.5907216 C13.4708867,16.5907216 12.2947011,17.7927835 12.2947011,19.2783505 C12.2947011,20.7639175 13.4708867,21.9659794 14.9244745,21.9659794 C16.3780623,21.9659794 17.5542478,20.7639175 17.5542478,19.2783505 C17.5542478,17.7984536 16.3780623,16.5907216 14.9244745,16.5907216 L14.9244745,16.5907216 Z" id="Shape"></path>
                        <path d="M14.9244745,8.27268041 C12.1726441,8.27268041 9.40416965,9.35 7.30700861,11.4989691 C6.51918622,12.3041237 6.51918622,13.6139175 7.30700861,14.4247423 C8.09483101,15.2298969 9.37642942,15.2298969 10.1697999,14.4247423 C11.4902346,13.0809278 13.1990325,12.4118557 14.9300225,12.4118557 C16.6554645,12.4118557 18.3642624,13.0809278 19.6846972,14.4247423 C20.4725195,15.2298969 21.754118,15.235567 22.5474884,14.4247423 C23.3353108,13.6195876 23.3408588,12.3097938 22.5474884,11.4989691 C20.4447793,9.35 17.6763048,8.26701031 14.9244745,8.27268041 L14.9244745,8.27268041 Z" id="Shape"></path>
                        <path d="M28.2619748,5.64742268 C24.5836209,1.88814433 19.7457256,0 14.9300225,0 C10.1032233,0 5.26532803,1.88814433 1.58697416,5.64742268 C0.799151756,6.45257732 0.799151756,7.76237113 1.58697416,8.57319588 C2.37479655,9.37835052 3.65639496,9.37835052 4.44976541,8.57319588 C7.34584493,5.61340206 11.1296117,4.13917526 14.9300225,4.13350515 C18.7248854,4.13350515 22.503104,5.60773196 25.4047316,8.57319588 C26.192554,9.37835052 27.4741524,9.38402062 28.2675229,8.57319588 C29.0497972,7.76804124 29.0497972,6.45824742 28.2619748,5.64742268 L28.2619748,5.64742268 Z" id="Shape"></path>
                    </g>
                </g>
            </g>
        </g>
    </g>
</svg>