<?xml version="1.0" encoding="UTF-8"?>
<svg width="283px" height="345px" viewBox="0 0 363 345" version="1.1" xmlns="http://www.w3.org/2000/svg" xmlns:xlink="http://www.w3.org/1999/xlink">
    <!-- Generator: Sketch 46.2 (44496) - http://www.bohemiancoding.com/sketch -->
    <title>Artboard 1</title>
    <desc>Created with Sketch.</desc>
    <defs></defs>
    <g id="WEBB" stroke="none" stroke-width="1" fill="none" fill-rule="evenodd">
        <g id="Artboard-1" transform="translate(167.176160, 166.833014) rotate(-345.000000) translate(-167.176160, -166.833014) translate(-6.823840, -15.166986)" fill-rule="nonzero">
            <path d="M270.256414,305.869136 C270.211386,305.779259 270.204954,305.682963 270.140628,305.625185 C269.992724,305.481036 269.794161,305.400387 269.587431,305.400494 C269.373382,305.398406 269.167335,305.481586 269.014935,305.631605 C250.552367,323.481014 229.00574,337.848793 205.416488,348.040494 C187.186691,355.988148 170.996007,360.013333 157.301146,360.013333 C155.061722,360.020083 152.823772,359.897905 150.598447,359.647407 L150.521257,359.647407 C150.137238,359.647699 149.805265,359.914888 149.723623,360.289383 C149.723623,360.392099 149.755786,360.475556 149.775083,360.571852 C156.810721,362.725764 164.119686,363.860791 171.478447,363.942222 C201.640591,363.942222 238.254566,342.699259 270.275712,305.856296" id="Shape" fill="#FF00CD"></path>
            <path d="M265.843697,310.857284 C275.314166,300.457354 283.978062,289.353373 291.76037,277.641481 C291.708909,277.551605 291.689612,277.448889 291.605989,277.384691 C291.522366,277.320494 291.30366,277.551605 291.142847,277.551605 C290.982033,277.551605 290.158669,278.431111 289.991423,278.630123 C271.105508,302.794074 233.076377,334.989136 186.672089,349.311605 C173.03512,353.510123 160.736118,355.654321 150.128872,355.654321 C145.212005,355.708101 140.307392,355.153924 135.527024,354.004444 C135.45868,353.995851 135.389527,353.995851 135.321183,354.004444 C134.977221,354.003883 134.670365,354.220057 134.555712,354.543704 C134.517116,354.64 134.555712,354.729877 134.555712,354.819753 C140.43244,357.566979 146.547016,359.775886 152.824104,361.419259 C154.303586,361.521975 155.763771,361.676049 157.288281,361.676049 C171.214713,361.676049 187.617671,357.593086 206.053309,349.561975 C227.99386,340.065616 248.199534,326.994359 265.843697,310.882963" id="Shape" fill="#FF00CD"></path>
            <path d="M299.33146,265.135802 C298.96829,264.89807 298.48222,264.985502 298.225065,265.334815 C260.601183,316.834074 189.116451,351.417284 145.954159,351.417284 C136.614122,351.417284 128.586322,349.902222 122.050869,346.923457 C121.944128,346.87353 121.827824,346.847249 121.709945,346.84642 C121.406909,346.846077 121.128994,347.014476 120.989501,347.282963 C120.964272,347.390647 120.964272,347.502687 120.989501,347.61037 C126.150661,350.706611 131.50244,353.474745 137.012939,355.898272 C141.325983,356.819326 145.724629,357.281988 150.135305,357.278519 C160.916229,357.278519 173.369612,355.115062 187.160961,350.858765 C230.844288,337.377284 267.567616,307.236543 287.74647,283.451358 C291.798965,277.68214 295.720665,271.656132 299.511571,265.373333 C299.453678,265.296296 299.434381,265.19358 299.337893,265.129383" id="Shape" fill="#FF00CD"></path>
            <path d="M314.743808,236.137778 C307.721278,248.53857 299.325683,260.113145 289.714824,270.643951 C252.406137,311.800988 184.864547,345.28642 139.264325,345.28642 C125.846063,345.28642 115.200222,343.122963 107.211017,337.582716 C106.936854,337.389666 106.635541,337.238227 106.316895,337.133333 C106.066026,337.133333 106.027431,336.908642 105.879482,337.133333 C105.825054,337.233683 105.798409,337.346698 105.802292,337.460741 C111.724905,341.853487 117.911736,345.879802 124.327985,349.517037 C130.528946,351.821728 137.720518,353.054321 145.947726,353.054321 C188.511793,353.054321 258.188983,319.761481 296.745582,269.87358 C303.585812,258.915481 309.753092,247.553013 315.213383,235.848889 L314.743808,236.137778 Z" id="Shape" fill="#FF00CD"></path>
            <path d="M318.937819,226.867654 C318.826036,226.811828 318.702591,226.783228 318.577597,226.784198 C318.283449,226.78517 318.011799,226.941486 317.863586,227.195062 C310.81901,239.804347 302.371099,251.579931 292.680222,262.298272 C253.814861,305.156543 182.542403,340.015802 133.796673,340.015802 C119.690129,340.015802 108.253087,337.120494 99.8007394,331.387654 C99.6640667,331.301116 99.5058802,331.254421 99.3440296,331.25284 C99.0898066,331.254349 98.8512745,331.375759 98.7007763,331.580247 C98.6300185,331.670123 98.6428835,331.779259 98.6171534,331.888395 C102.476673,334.969877 106.336192,337.845926 110.195712,340.555062 C117.953346,344.695802 127.634307,346.917037 139.296488,346.917037 C186.106026,346.917037 252.721331,313.900247 290.949871,271.741728 C299.994011,261.771852 306.716007,251.371852 312.569612,241.337778 C314.846728,236.681317 317.038078,231.92 319.14366,227.053827 C319.079335,226.98963 319.053604,226.906173 318.969982,226.861235" id="Shape" fill="#FF00CD"></path>
            <path d="M325.196673,211.331852 C325.091731,211.284065 324.977524,211.259954 324.862181,211.261235 C324.562315,211.259802 324.285766,211.422445 324.141738,211.684938 C317.61915,223.811852 306.29146,241.755062 289.361035,258.401481 C252.740628,294.422716 180.998595,333.30716 128.940111,333.30716 C112.286285,333.30716 98.4113124,329.397531 88.1514233,321.680988 C87.8077131,321.412875 87.3119437,321.470076 87.0385952,321.809383 C87,321.854321 87.0385952,321.912099 87.0385952,321.950617 C91.7943808,326.286091 96.6209242,330.351934 101.518226,334.148148 C109.977006,339.04 120.712902,341.62716 133.79024,341.62716 C182.934787,341.62716 254.754011,306.517531 293.889538,263.37037 C302.697151,253.610226 310.482357,242.977384 317.123845,231.637531 C320.057079,225.127901 322.848799,218.444938 325.421811,211.550123 C325.357486,211.473086 325.306026,211.37679 325.21597,211.331852" id="Shape" fill="#FF00CD"></path>
            <path d="M329.056192,200.46963 C328.954597,200.426225 328.845073,200.404364 328.734566,200.405432 C328.436063,200.402713 328.159841,200.562701 328.014122,200.822716 C316.615675,222.007901 303.023734,239.527407 286.479261,254.344198 C239.213013,296.695309 170.52,327.407407 123.150832,327.407407 C106.638521,327.407407 93.1430684,323.799506 83.0182625,316.67358 C82.6696677,316.430799 82.1923584,316.49805 81.924732,316.827654 C81.8604067,316.891852 81.8732717,316.981728 81.8411091,317.071605 C84.716451,319.832099 87.6303882,322.515556 90.5507579,325.089877 C100.707726,331.599506 113.566359,334.918519 128.940111,334.918519 C181.410277,334.918519 253.660481,295.790123 290.506026,259.544198 C303.572331,246.538341 314.764722,231.783796 323.762218,215.703704 C325.691978,210.760494 327.52525,205.759506 329.242736,200.642963 C329.17841,200.572346 329.15268,200.495309 329.056192,200.45679" id="Shape" fill="#FF00CD"></path>
            <path d="M334.768281,181.576296 C334.683628,181.546237 334.594398,181.531033 334.504547,181.531358 C334.176813,181.530907 333.881601,181.729017 333.758373,182.032099 C323.935896,205.4 304.676895,230.385679 282.265952,248.861728 C231.828466,290.42321 164.376932,319.479012 118.236377,319.479012 C97.6973013,319.479012 81.2686137,314.478025 69.8765989,303.898272 C69.7262965,303.759383 69.5282163,303.683527 69.3234011,303.68642 C69.1694309,303.702985 69.0227763,303.760644 68.898854,303.853333 C73.877634,309.284444 78.9914972,314.484444 84.2275786,319.389136 C94.3523845,325.808889 106.88939,329.076543 123.157264,329.076543 C170.893087,329.076543 240.036377,298.171852 287.572791,255.58963 C303.654122,241.183704 316.911571,224.177778 328.142773,203.865679 C330.630018,196.684115 332.907135,189.316379 334.974122,181.762469 C334.909797,181.711111 334.871201,181.627654 334.781146,181.595556" id="Shape" fill="#FF00CD"></path>
            <path d="M337.032532,172.928889 C336.946185,172.896806 336.854472,172.881551 336.762366,172.883951 C336.447955,172.885714 336.161548,173.064673 336.022625,173.346173 C325.852791,194.871605 311.810573,218.361481 278.219889,244.265185 C223.993641,286.096296 159.372421,313.123457 113.624251,313.123457 C93.6834011,313.123457 77.5184473,308.205926 65.5925323,298.518519 C65.4497278,298.400588 65.2697071,298.33691 65.0843623,298.338765 C64.8628739,298.337491 64.6508274,298.428187 64.4990018,298.589136 C64.428244,298.659753 64.428244,298.762469 64.3896488,298.852346 C66.8468762,301.638519 69.3426987,304.399012 71.8771165,307.082469 C83.3913494,316.346173 98.8937523,321.083951 118.236377,321.083951 C164.730721,321.083951 232.613235,291.899753 283.308022,250.12 C305.088577,232.17679 323.832976,208.154074 334.02854,185.325432 C335.17353,181.306667 336.267061,177.242963 337.244806,173.127901 C337.181308,173.047175 337.10265,172.979577 337.013235,172.928889" id="Shape" fill="#FF00CD"></path>
            <path d="M340.924214,154.96642 C340.851587,154.957488 340.778136,154.957488 340.705508,154.96642 C340.366006,154.967608 340.062044,155.176645 339.940037,155.49284 C328.104177,186.795556 306.233567,213.70716 273.118891,237.755556 C216.358226,278.957531 152.740481,304.520988 107.075933,304.520988 C86.311719,304.520988 69.6514603,299.320988 57.5454344,289.049383 C57.3976117,288.926309 57.2104511,288.86025 57.0179667,288.86321 C56.8058669,288.861407 56.6019235,288.944673 56.4519039,289.094321 C56.3875786,289.158519 56.3875786,289.241975 56.3425508,289.319012 C59.6059889,293.312099 62.9530499,297.234568 66.3837338,301.08642 C78.4833272,310.131852 94.3009242,314.741235 113.624251,314.741235 C159.713346,314.741235 224.714085,287.57284 279.223364,245.542716 C311.932791,220.319506 326.251608,197.356049 336.427874,176.209383 C338.198965,169.310288 339.768503,162.269959 341.136488,155.088395 C341.059298,155.037037 341.01427,154.96 340.930647,154.934321" id="Shape" fill="#990AE3"></path>
            <path d="M342.422994,146.63358 C342.351903,146.612962 342.278317,146.602162 342.204288,146.601481 C341.870325,146.6032 341.570483,146.806079 341.44525,147.115062 C329.171978,178.116049 304.721922,206.581235 268.757634,231.714568 C223.729908,263.209877 156.252643,296.855802 101.955638,296.855802 C80.7604436,296.855802 63.7463956,291.598025 51.3766359,281.217284 C51.2291034,281.093702 51.0417468,281.027574 50.8491682,281.031111 C50.6399455,281.027887 50.4382344,281.108874 50.2895379,281.255802 C50.2252126,281.32 50.21878,281.409877 50.1801848,281.486914 C52.7531978,284.867984 55.3862477,288.195556 58.0793346,291.46963 C70.4104991,301.208395 86.8198891,306.145185 107.069501,306.145185 C153.055675,306.145185 217.065804,280.427654 274.064473,239.033086 C306.703142,215.337778 328.438669,188.817778 340.570425,158.112099 C341.316599,154.375802 342.009168,150.607407 342.648133,146.806914 C342.570943,146.749136 342.51305,146.659259 342.410129,146.63358" id="Shape" fill="#990AE3"></path>
            <path d="M344.532865,132.112099 C344.471014,132.103053 344.408172,132.103053 344.346322,132.112099 C344.006249,132.111458 343.701348,132.32114 343.58085,132.638519 C330.381294,167.683951 303.120222,198.883951 262.530943,225.378272 C201.601996,265.180741 141.219815,287.990123 96.8739372,287.990123 C74.2507209,287.990123 56.2782255,282.10963 43.4839187,270.496296 C43.1730524,270.223623 42.707687,270.223623 42.3968207,270.496296 C42.3324954,270.560494 42.3260628,270.643951 42.2810351,270.714568 C45.2828835,274.994403 48.4069501,279.23786 51.6532348,283.444938 C64.3060259,293.453333 81.1528281,298.512099 101.96207,298.512099 C156.638595,298.512099 224.469649,264.712099 269.709649,233.075556 C305.236525,208.231111 329.5322,180.112593 342.178558,149.49037 C343.156303,143.828148 344.06329,138.114568 344.751571,132.298272 C344.686048,132.225226 344.604632,132.168129 344.513567,132.131358" id="Shape" fill="#990AE3"></path>
            <path d="M345.645693,121.712099 C345.59226,121.706055 345.538313,121.706055 345.48488,121.712099 C345.125845,121.711381 344.809124,121.946491 344.706543,122.289877 C335.057745,154.388642 304.130129,188.702222 257.648651,218.984198 C200.579224,256.148148 134.62647,280.177284 89.6180407,280.177284 C67.1041774,280.177284 49.9807763,274.534321 38.6466543,263.408889 C38.3531017,263.113476 37.8828862,263.088485 37.5595564,263.351111 C37.4887985,263.415309 37.4759335,263.498765 37.4309057,263.569383 C39.4936044,266.655144 41.5970425,269.708807 43.74122,272.73037 C56.8700185,283.92 74.675268,289.588642 96.9060998,289.588642 C141.560739,289.588642 202.27098,266.676543 263.450795,226.71358 C303.686285,200.437531 330.870166,169.481481 344.417079,134.769877 C344.97671,130.500741 345.446285,126.193086 345.857967,121.846914 C345.780776,121.801975 345.735749,121.731358 345.645693,121.712099" id="Shape" fill="#990AE3"></path>
            <path d="M347.067283,103.396543 C346.843203,103.310524 346.592554,103.327231 346.381927,103.442228 C346.1713,103.557224 346.022022,103.758866 345.973752,103.99358 C338.563475,140.098272 303.030166,180.18963 250.920222,211.203457 C186.356895,249.664198 127.557116,270.842963 85.3468392,270.842963 C62.035342,270.842963 43.9020333,264.506667 31.4422181,252.007407 C31.1546579,251.719371 30.6975458,251.689141 30.3744177,251.93679 C30.2907948,251.994568 30.2714972,252.097284 30.220037,252.180741 C32.9474307,256.706667 35.8485028,261.206914 38.8524954,265.662222 C50.5725693,276.38321 67.5415896,281.82716 89.6180407,281.82716 C134.915933,281.82716 201.228909,257.701728 258.53634,220.358025 C304.33597,190.512593 335.083475,156.686914 345.549205,124.857778 C346.276081,117.796049 346.835712,110.734321 347.163771,103.47358 C347.131312,103.451212 347.09686,103.431872 347.06085,103.415802" id="Shape" fill="#990AE3"></path>
            <path d="M347.388909,93.7925926 C347.305287,93.7540741 347.247394,93.6834568 347.150906,93.6706173 L347.067283,93.6706173 C346.682397,93.6684488 346.349065,93.9367309 346.269649,94.3125926 C339.00732,131.380247 303.326063,170.515062 245.793494,204.514074 C183.642366,241.235062 122.880665,262.291852 79.0815527,262.291852 C56.7863956,262.291852 39.6565619,256.963457 28.1680591,246.46716 C28.0174048,246.328838 27.8195592,246.253071 27.6148614,246.255309 C27.4287078,246.255251 27.2485952,246.321237 27.1066913,246.441481 C27.0487985,246.48642 27.042366,246.557037 26.9973383,246.614815 C28.431793,249.137778 29.9112754,251.635062 31.4357856,254.138765 C44.2686876,266.336296 62.3119409,272.46716 85.3468392,272.46716 C127.801553,272.46716 186.92939,251.204938 251.750018,212.596543 C303.120222,182 338.441257,142.621235 346.951497,106.670617 C347.165915,102.390782 347.307431,98.0874074 347.376044,93.7604938" id="Shape" fill="#CC00FF"></path>
            <path d="M347.00939,77.037037 C346.919335,76.9920988 346.835712,76.9150617 346.726359,76.9150617 L346.726359,76.9150617 C346.298082,76.9141994 345.943051,77.2460285 345.91586,77.6725926 C343.413604,114.733827 302.425508,160.134321 238.942847,196.149136 C175.022773,232.395062 116.268022,252.373333 73.4723845,252.373333 C49.9743438,252.373333 32.5486137,246.364444 21.6840665,234.50716 C21.5285465,234.338499 21.3090728,234.242961 21.0794085,234.243951 C20.9151094,234.242503 20.7540236,234.289393 20.6162662,234.378765 C20.5390758,234.436543 20.5197782,234.52642 20.4683179,234.590617 C22.8290573,239.232099 25.3892052,243.87358 28.0844362,248.508642 C39.862403,258.716049 56.9858041,263.916049 79.0879852,263.916049 C123.170129,263.916049 184.234159,242.769383 246.636155,205.900741 C303.416118,172.363951 338.994455,133.729877 347.356747,96.8612346 C347.433937,93.8632099 347.54329,90.8780247 347.54329,87.8735802 C347.54329,84.1244444 347.343882,80.5550617 347.03512,77.0819753" id="Shape" fill="#990AE3"></path>
            <path d="M347.170203,80.497284 C346.928412,75.5842852 346.348113,70.6937182 345.43342,65.8602469 C345.35324,65.8100613 345.263386,65.7772535 345.169686,65.7639506 L345.098928,65.7639506 C344.683913,65.7968375 344.36136,66.1381753 344.352754,66.5535802 C343.632311,104.121975 303.8278,147.442469 232.201553,188.471111 C171.092495,223.516543 111.482218,243.61037 68.705878,243.61037 C45.1177819,243.61037 27.8271349,237.537284 17.3163771,225.564444 C17.0482983,225.26425 16.6019197,225.201773 16.2614418,225.41679 C16.1906839,225.461728 16.1713863,225.545185 16.1199261,225.609383 C17.7923845,229.242963 19.5613309,232.889383 21.4589279,236.522963 C32.6965619,248.078519 50.1480222,253.984691 73.4659519,253.984691 C116.563919,253.984691 175.595268,233.948642 239.721183,197.561481 C302.168207,162.137284 342.911867,117.564938 347.144473,80.4780247" id="Shape" fill="#990AE3"></path>
            <path d="M345.825804,68.4730864 C344.774422,62.2449157 343.048981,56.1489904 340.679778,50.2923457 L340.679778,50.2923457 C340.605213,50.2803539 340.529205,50.2803539 340.45464,50.2923457 C340.052316,50.4102472 339.803036,50.8110673 339.875712,51.2232099 C346.835712,88.4577778 301.569982,138.949136 224.566137,179.90716 C160.813309,213.854815 103.171386,232.536296 62.3634011,232.536296 C37.8232902,232.536296 20.8285397,225.846914 11.8487246,212.635062 C11.7037976,212.420845 11.4643537,212.289412 11.2054713,212.281975 C11.0735491,212.280911 10.9433311,212.311749 10.8259519,212.371852 C10.742329,212.41679 10.7037338,212.519506 10.645841,212.583704 C12.5412939,217.505514 14.6640296,222.476543 17.0140481,227.49679 C27.8785952,239.244938 45.2335675,245.234568 68.705878,245.234568 C111.752384,245.234568 171.626396,225.057284 233.018484,189.877037 C303.956451,149.207901 343.851017,106.189136 345.825804,68.4666667" id="Shape" fill="#990AE3"></path>
            <path d="M341.663956,52.7446914 C340.231377,48.8407068 338.477902,45.0615847 336.421442,41.4459259 C336.382847,41.4459259 336.369982,41.3945679 336.331386,41.3945679 C336.246294,41.3946926 336.161712,41.4076793 336.080518,41.4330864 C335.695097,41.5579691 335.459655,41.9459496 335.52732,42.3446914 C341.959852,79.4380247 298.128577,127.284444 218.281553,170.335309 C156.760813,203.493333 97.9481701,222.527901 56.9279113,222.527901 C34.6970795,222.527901 18.7251017,217.039012 9.44295749,206.221728 C9.28450295,206.032487 9.04655551,205.927998 8.79970425,205.939259 C8.65514158,205.938041 8.51292363,205.975742 8.38802218,206.048395 C8.33012939,206.048395 8.31726433,206.138272 8.2722366,206.18321 C9.24140481,208.990782 10.2941959,211.819753 11.43061,214.670123 C21.0279482,227.612346 38.0677264,234.154074 62.3441035,234.154074 C103.422255,234.154074 161.302181,215.408395 225.325176,181.364444 C301.788688,140.708148 347.041553,90.5185185 341.663956,52.7446914" id="Shape" fill="#990AE3"></path>
            <path d="M337.193346,42.8839506 C335.330357,39.3962423 333.178698,36.0699445 330.760813,32.9397531 C330.667386,32.9477665 330.576016,32.9716491 330.490647,33.0103704 C330.136248,33.2168624 329.990345,33.6537004 330.149723,34.0311111 C343.07268,64.8459259 290.370943,121.42963 210.163697,162.881975 C150.302551,193.818765 93.2073937,211.569383 53.5122366,211.569383 C27.6598891,211.569383 10.7744917,204.039012 4.68931608,189.79358 C4.55904383,189.494287 4.26367002,189.300282 3.9367098,189.299259 C3.851633,189.299578 3.76707975,189.312561 3.68584104,189.337778 C3.58935305,189.376296 3.53789279,189.466173 3.4607024,189.523951 C4.91966748,195.783353 6.74317002,201.95251 8.92192237,208 C18.6093161,218.682469 34.7099445,224.145679 56.9086137,224.145679 C98.1926063,224.145679 157.256118,205.046914 219.008429,171.760494 C298.939076,128.664691 342.963327,80.6 337.161183,42.8775309" id="Shape" fill="#990AE3"></path>
            <path d="M332.143808,34.8720988 C329.992382,31.8870366 327.607003,29.0770649 325.010129,26.468642 C324.921618,26.4788212 324.83619,26.5072405 324.759261,26.5520988 C324.434395,26.7866477 324.328109,27.221825 324.508392,27.5792593 C339.521922,56.8083951 288.486211,109.803457 203.145804,153.592593 C143.966506,183.977284 87.797634,201.394074 49.0737893,201.394074 C25.85878,201.394074 10.1119409,194.858765 3.54432532,182.51358 C3.36421442,182.179753 3.19696858,181.839506 3.02972274,181.49284 C2.88190881,181.188387 2.57731163,180.990669 2.23852126,180.979259 C2.16825167,180.967527 2.09651728,180.967527 2.02624769,180.979259 C1.93938235,181.017305 1.86073875,181.07181 1.79467652,181.139753 C2.36073937,184.651358 3.12621072,188.25284 4.03319778,191.912099 C11.0124954,205.817284 27.9686506,213.155062 53.4993715,213.155062 C93.4389649,213.155062 150.810721,195.346667 210.897006,164.287901 C290.660407,123.079506 343.227061,66.7076543 332.15024,34.8335802" id="Shape" fill="#990AE3"></path>
            <path d="M326.476747,28.0350617 C323.488726,24.8198731 320.213948,21.8825115 316.692865,19.2592593 C316.590957,19.275786 316.492888,19.3105856 316.403401,19.3619753 C316.111967,19.6099021 316.03417,20.0275671 316.216858,20.3634568 C319.394529,26.2503704 319.735453,33.3249383 317.233198,41.3881481 C308.32414,70.0780247 265.251904,107.209877 204.792532,138.345679 C143.130277,170.084938 83.217671,189.061728 44.5066913,189.061728 C23.7038817,189.061728 10.3177819,183.726914 4.71504621,173.198519 C3.13034654,170.147355 2.09402437,166.842492 1.65316081,163.434074 C1.59251837,163.030849 1.24478023,162.73299 0.836229205,162.734321 L0.784768946,162.734321 C0.694713494,162.734321 0.636820702,162.811358 0.559630314,162.843457 C0.559630314,163.79358 0.430979667,164.769383 0.430979667,165.693827 C0.49195726,171.657419 1.08176368,177.603918 2.19349353,183.463704 C9.12133087,196.30321 25.3120148,203.05037 49.0609242,203.05037 C88.0420702,203.05037 144.468244,185.562963 203.885545,155.069136 C288.942921,111.414815 340.010795,58.342716 326.470314,28.0671605" id="Shape" fill="#990AE3"></path>
            <path d="M318.796303,41.8246914 C321.369316,33.6009877 321.002662,26.3402469 317.895749,20.1901235 C314.720949,17.7638828 311.366421,15.5813329 307.860998,13.6612346 C307.796673,13.6997531 307.706617,13.6612346 307.655157,13.7511111 C307.398533,14.0339995 307.377015,14.4581212 307.603697,14.7654321 C307.873863,15.1377778 308.118299,15.5037037 308.349871,15.8824691 C311.386026,20.9348148 311.836303,27.0785185 309.707135,34.1338272 C301.048946,62.8493827 250.527837,104.109136 186.910092,134.525926 C130.252348,161.598025 75.9038817,177.756543 41.6056192,177.756543 C21.7805545,177.756543 9.21138632,172.562963 4.25833641,162.317037 C3.04902033,159.813333 2.47009242,156.539259 2.53441774,152.687407 C2.54256019,152.256127 2.21269116,151.893148 1.78181146,151.859259 L1.71748614,151.859259 C1.64672828,151.859259 1.58883549,151.910617 1.52451017,151.929877 C0.847999942,156.392761 0.489024371,160.897857 0.450277264,165.411358 C0.967098924,168.383111 1.92082531,171.262402 3.2805915,173.956049 C9.18565619,185.030123 23.0541959,190.666667 44.5066913,190.666667 C83.4556747,190.666667 143.657745,171.651358 205.551571,139.802963 C266.396895,108.493827 309.790758,70.9382716 318.796303,41.8246914" id="Shape" fill="#990AE3"></path>
            <path d="M311.263808,34.6088889 C313.534492,27.091358 313.019889,20.4854321 309.74573,15.054321 C309.617079,14.8424691 309.462699,14.6306173 309.327616,14.4123457 C303.332545,11.0147445 296.987656,8.27262015 290.403105,6.23358025 C290.319482,6.31061728 290.171534,6.30419753 290.126506,6.41975309 C289.966991,6.815515 290.13744,7.26728392 290.518891,7.45975309 C293.580776,8.96839506 295.664917,10.5283951 296.674824,12.0948148 C299.299298,16.1264198 299.78817,21.1466667 298.115712,27.0014815 C290.396673,53.9644444 238.13878,95.3333333 173.813457,125.429136 C120.564954,150.344198 72.1794455,164.634568 41.1424769,164.634568 C22.7132717,164.634568 10.7873567,159.620741 6.65123845,150.138765 C5.21678373,146.839012 5.0109427,142.435062 6.04014787,136.997531 C6.3231793,136.079506 6.62550832,135.161481 6.93426987,134.249877 C7.00339232,134.045584 6.98792477,133.822204 6.89130215,133.629342 C6.79467952,133.436481 6.62490008,133.290103 6.41966728,133.222716 C6.33732284,133.192353 6.25014843,133.177128 6.16236599,133.177778 C6.11733826,133.177778 6.09804067,133.248395 6.05301294,133.254815 C3.59406823,140.324513 1.93068067,147.645242 1.0935305,155.081975 C1.2736414,158.144198 1.73678373,160.859753 2.79171904,163.02321 C8.04066543,173.879012 21.0987061,179.380741 41.6056192,179.380741 C76.161183,179.380741 130.747652,163.164444 187.624104,136.002469 C251.640665,105.418765 302.483401,63.7288889 311.263808,34.6088889" id="Shape" fill="#990AE3"></path>
            <path d="M299.678817,27.4508642 C301.486359,21.1209877 300.965323,15.651358 298.038521,11.2088889 C297.125102,9.80296296 295.529834,8.44197531 293.31061,7.12592593 C287.486337,5.11081479 281.513982,3.5503984 275.447468,2.45876543 C275.331682,2.56148148 275.145139,2.56790123 275.100111,2.72197531 C274.989158,3.13343317 275.217053,3.56023994 275.621146,3.69777778 C279.97597,5.20641975 282.857745,7.11308642 284.202144,9.36641975 C286.241257,12.7753086 286.504991,17.0701235 284.980481,22.0967901 C277.550906,46.7871605 230.972939,83.8997531 171.748614,112.345679 C119.645102,137.382716 72.3659889,151.692346 41.952976,151.692346 C25.3699076,151.692346 14.4474677,147.294815 10.3821072,138.981235 C8.62602588,135.392593 8.56170055,130.962963 10.1826987,125.82716 C10.3085809,125.415168 10.0916406,124.976525 9.68739372,124.825679 C9.59756892,124.789398 9.50123452,124.771918 9.40436229,124.774321 C9.40436229,124.774321 9.40436229,124.774321 9.3657671,124.774321 C7.23176791,129.577435 5.45166575,134.529505 4.03963031,139.591111 C3.52502773,144.05284 3.87238447,147.808395 5.15889094,150.761481 C9.57160813,160.911111 22.0121257,166.271605 41.168207,166.271605 C72.9191867,166.271605 120.288355,152.289383 174.527468,126.912099 C240.267948,96.1358025 291.753937,55.2098765 299.678817,27.4508642" id="Shape" fill="#9933FF"></path>
            <path d="M286.543586,22.5654321 C288.196747,17.0701235 287.881553,12.3451852 285.604436,8.53185185 C284.31793,6.40691358 281.918595,4.60296296 278.528651,3.11358025 C268.652408,1.11595223 258.60424,0.0860400848 248.52732,0.0385185185 C248.461925,0.12395416 248.415841,0.222508441 248.392237,0.327407407 C248.36511,0.757395231 248.677883,1.13422678 249.106248,1.18765432 C258.870832,2.33679012 265.129686,4.87901235 267.233124,8.53185185 C268.918447,11.4528395 269.098558,15.0735802 267.767024,19.2977778 C260.864917,41.2276543 216.306765,75.1817284 159.49464,101.868642 C111.84244,124.241481 71.0087246,136.535309 44.5066913,136.535309 C29.8662477,136.535309 20.6355638,132.786173 17.0655083,125.397037 C15.2386691,121.628642 15.3608872,117.083457 17.4192976,111.915556 C17.5733227,111.530131 17.4127208,111.090735 17.0462107,110.894815 C16.9340338,110.839287 16.8111513,110.808627 16.6859889,110.804938 C13.2834394,116.421536 10.3427174,122.304177 7.89271719,128.395062 C7.04362292,132.677037 7.35238447,136.464691 8.92192237,139.661728 C13.3410721,148.70716 24.456488,153.290864 41.9594085,153.290864 C72.6039926,153.290864 120.159704,138.891358 172.42403,113.790123 C232.060037,85.177284 278.98536,47.6538272 286.543586,22.5654321" id="Shape" fill="#9933FF"></path>
            <path d="M269.330129,19.785679 C270.796747,15.1120988 270.571608,11.0483951 268.648281,7.71654321 C266.570573,4.12148148 261.43098,1.59851852 253.371017,0.173333333 C251.222551,0.0962962963 249.080518,0 246.938484,0 C236.899255,0.0257554078 226.868905,0.597963279 216.892126,1.71407407 C216.85353,1.82320988 216.782773,1.91308642 216.795638,2.02864198 C216.826062,2.45267039 217.180178,2.78083885 217.606137,2.77975309 L217.606137,2.77975309 C219.484436,2.70271605 221.304843,2.65777778 223.054492,2.65777778 C236.311941,2.65777778 244.841479,4.92395062 247.08,9.03901235 C248.424399,11.517037 248.52732,14.5471605 247.388762,18.0266667 C241.361479,36.4641975 201.074529,66.3995062 149.356969,90.8266667 C108.613309,110.085926 71.6584104,121.115062 47.9416636,121.115062 C35.5333087,121.115062 27.537671,118.020741 24.7845471,112.127407 C22.9319778,108.134321 23.9032902,102.96642 27.6856192,96.7649383 C27.9089096,96.3971329 27.8075587,95.9194822 27.4540481,95.6735802 C27.3708266,95.627223 27.2787917,95.5987927 27.1838817,95.5901235 C22.8478465,101.095019 18.9220552,106.909782 15.4380776,112.987654 C13.810647,117.962963 13.8170795,122.373333 15.6310536,126.135309 C19.490573,134.127901 29.2229945,138.185185 44.538854,138.185185 C71.2467283,138.185185 112.32488,125.82716 160.170055,103.358025 C217.419593,76.4785185 262.299372,42.1135802 269.330129,19.785679" id="Shape" fill="#9933FF"></path>
            <path d="M223.774935,1.04641975 C212.006198,2.08310521 200.307348,3.79789982 188.736932,6.18222222 C188.694389,6.27487262 188.672445,6.37561541 188.672606,6.47753086 C188.749737,6.85478597 189.084474,7.12419926 189.47024,7.11950617 L189.586026,7.11950617 C194.591481,6.35510924 199.645382,5.94962662 204.708909,5.90617284 C214.782255,5.90617284 221.330573,8.08246914 223.12525,12.0306173 C229.22329,25.4735802 192.332717,55.8004938 140.872458,79.6049383 C106.625656,95.4681481 73.1057301,105.316049 53.3900185,105.316049 C44.1143068,105.316049 38.2092421,103.152593 36.3052126,99.0503704 C33.8029575,93.6706173 38.074159,85.0553086 48.3276155,74.802963 C48.639062,74.4879665 48.639062,73.9816632 48.3276155,73.6666667 C48.2376497,73.6019815 48.1343698,73.5581199 48.0252865,73.5382716 C39.6107376,81.0741197 31.9303021,89.3884509 25.0868762,98.3698765 C22.1793715,104.038519 21.4975231,108.911111 23.3307948,112.859259 C26.34122,119.33679 34.8450277,122.758519 47.9352311,122.758519 C71.8706839,122.758519 109.095749,111.658765 150.04525,92.3096296 C202.93353,67.3175309 242.673715,37.6711111 248.926137,18.5402469 C250.212643,14.611358 250.071128,11.1511111 248.50159,8.26864198 C245.336784,2.42666667 233.500924,1.10419753 223.774935,1.04641975" id="Shape" fill="#9933FF"></path>
            <path d="M224.598299,11.362963 C222.494861,6.72790123 215.592754,4.30123457 204.696044,4.30123457 C202.039409,4.30123457 199.093309,4.48740741 196.012126,4.7762963 C179.682196,7.73117959 163.595088,11.8941022 147.883919,17.2306173 C147.883919,17.3397531 147.826026,17.4360494 147.883919,17.5387654 C147.992888,17.8757996 148.307404,18.1040841 148.662255,18.1037037 C148.741177,18.1151175 148.821336,18.1151175 148.900259,18.1037037 C161.926137,14.1491358 173.253826,12.062716 181.648281,12.062716 C189.135749,12.062716 193.870092,13.7382716 195.330277,16.8967901 C200.051756,27.0271605 171.555638,50.2859259 131.821885,68.691358 C105.403475,80.9338272 79.3645841,88.5412346 63.8686137,88.5412346 C56.7156377,88.5412346 52.1742699,86.917037 50.7526802,83.8548148 C48.3083179,78.5906173 54.7215527,69.4103704 68.3392237,58.6637037 C68.6846706,58.3879017 68.7500027,57.888962 68.4871719,57.5338272 C68.416414,57.4439506 68.3006285,57.4503704 68.2041405,57.3925926 C59.1708449,63.8096126 50.6304155,70.8910391 42.654122,78.5777778 C35.1473567,87.3150617 32.407098,94.5758025 34.8192976,99.762963 C37.0385213,104.545679 43.2845102,106.972346 53.383586,106.972346 C73.6203327,106.972346 106.580628,97.3041975 141.554307,81.1135802 C195.587579,56.0765432 231.300998,26.0962963 224.604732,11.362963" id="Shape" fill="#9933FF"></path>
            <path d="M196.78403,16.1777778 C195.015083,12.3259259 189.907652,10.4 181.628983,10.4 C175.608133,10.4 168.043475,11.4785185 159.526802,13.4814815 C123.163697,24.3950617 88.5052126,41.4523457 60.851756,62.9135802 C51.0871719,71.862716 46.9124584,79.482963 49.2731978,84.5738272 C51.003549,88.3101235 55.9180037,90.2039506 63.8686137,90.2039506 C79.5832902,90.2039506 105.885915,82.5387654 132.503734,70.2 C174.424547,50.7160494 202.058706,27.534321 196.78403,16.1777778 M122.346765,57.2641975 C104.618706,65.3916049 87.5789279,70.4375309 77.8658041,70.4375309 C73.8519039,70.4375309 71.3303512,69.577284 70.5777449,67.9402469 C68.0754898,62.4962963 84.0860628,48.0839506 111.971091,35.3150617 C129.081627,27.4765432 145.915564,22.6039506 155.911719,22.6039506 C160.240813,22.6039506 162.948909,23.5155556 163.740111,25.2360494 C166.12658,30.4232099 150.977967,44.1422222 122.346765,57.2641975" id="Shape" fill="#9933FF"></path>
            <path d="M165.219593,24.5298765 C164.126063,22.1545679 160.99342,20.9476543 155.911719,20.9476543 C145.696858,20.9476543 128.599187,25.8780247 111.295675,33.7871605 C87.6689834,44.6108642 65.4252865,60.5832099 69.0982625,68.5693827 C70.1467652,70.8548148 73.0992976,72.0103704 77.8658041,72.0103704 C87.7912015,72.0103704 105.101146,66.9066667 123.022181,58.6893827 C146.822551,47.7758025 168.918299,32.5545679 165.219593,24.5041975 M142.403401,31.8933333 C141.567172,34.9041975 133.15342,41.522963 118.686654,48.2958025 C107.42329,53.5920988 96.5909057,57.0074074 91.084658,57.0074074 C89.5472828,57.0074074 88.4730499,56.7185185 88.1385582,56.2241975 C87.977759,55.9506566 87.9562844,55.6172697 88.0806654,55.3254321 C88.9426248,52.2311111 97.536488,45.342716 111.771682,38.6340741 C122.706987,33.4982716 133.468614,30.1728395 139.17427,30.1728395 C140.833863,30.1728395 141.985287,30.4745679 142.339076,31.0074074 C142.500453,31.2686693 142.524446,31.5919336 142.403401,31.8740741" id="Shape" fill="#9933FF"></path>
            <path d="M143.69634,30.1214815 C142.995194,29.0750617 141.515712,28.5614815 139.193567,28.5614815 C133.269205,28.5614815 122.237412,31.9446914 111.096266,37.1832099 C97.7744917,43.4360494 87.6754159,50.7160494 86.5111275,54.8888889 C86.2587891,55.6368793 86.3605466,56.4587692 86.7877264,57.122963 C87.4695749,58.137284 88.8718669,58.6316049 91.0910906,58.6316049 C96.8096118,58.6316049 107.918595,55.1520988 119.394233,49.7659259 C130.696192,44.4567901 142.686433,37.0034568 143.985804,32.3298765 C144.234635,31.5900418 144.132856,30.7774231 143.709205,30.1214815" id="Shape" fill="#9933FF"></path>
            <g id="Group" opacity="0.3" fill="#FFFFFF">
                <path d="M270.256414,305.869136 C270.211386,305.779259 270.204954,305.682963 270.140628,305.625185 C269.992724,305.481036 269.794161,305.400387 269.587431,305.400494 C269.373382,305.398406 269.167335,305.481586 269.014935,305.631605 C250.552367,323.481014 229.00574,337.848793 205.416488,348.040494 C187.186691,355.988148 170.996007,360.013333 157.301146,360.013333 C155.061722,360.020083 152.823772,359.897905 150.598447,359.647407 L150.521257,359.647407 C150.137238,359.647699 149.805265,359.914888 149.723623,360.289383 C149.723623,360.392099 149.755786,360.475556 149.775083,360.571852 C156.810721,362.725764 164.119686,363.860791 171.478447,363.942222 C201.640591,363.942222 238.254566,342.699259 270.275712,305.856296" id="Shape"></path>
                <path d="M265.843697,310.857284 C275.314166,300.457354 283.978062,289.353373 291.76037,277.641481 C291.708909,277.551605 291.689612,277.448889 291.605989,277.384691 C291.522366,277.320494 291.30366,277.551605 291.142847,277.551605 C290.982033,277.551605 290.158669,278.431111 289.991423,278.630123 C271.105508,302.794074 233.076377,334.989136 186.672089,349.311605 C173.03512,353.510123 160.736118,355.654321 150.128872,355.654321 C145.212005,355.708101 140.307392,355.153924 135.527024,354.004444 C135.45868,353.995851 135.389527,353.995851 135.321183,354.004444 C134.977221,354.003883 134.670365,354.220057 134.555712,354.543704 C134.517116,354.64 134.555712,354.729877 134.555712,354.819753 C140.43244,357.566979 146.547016,359.775886 152.824104,361.419259 C154.303586,361.521975 155.763771,361.676049 157.288281,361.676049 C171.214713,361.676049 187.617671,357.593086 206.053309,349.561975 C227.99386,340.065616 248.199534,326.994359 265.843697,310.882963" id="Shape"></path>
                <path d="M299.33146,265.135802 C298.96829,264.89807 298.48222,264.985502 298.225065,265.334815 C260.601183,316.834074 189.116451,351.417284 145.954159,351.417284 C136.614122,351.417284 128.586322,349.902222 122.050869,346.923457 C121.944128,346.87353 121.827824,346.847249 121.709945,346.84642 C121.406909,346.846077 121.128994,347.014476 120.989501,347.282963 C120.964272,347.390647 120.964272,347.502687 120.989501,347.61037 C126.150661,350.706611 131.50244,353.474745 137.012939,355.898272 C141.325983,356.819326 145.724629,357.281988 150.135305,357.278519 C160.916229,357.278519 173.369612,355.115062 187.160961,350.858765 C230.844288,337.377284 267.567616,307.236543 287.74647,283.451358 C291.798965,277.68214 295.720665,271.656132 299.511571,265.373333 C299.453678,265.296296 299.434381,265.19358 299.337893,265.129383" id="Shape"></path>
                <path d="M314.743808,236.137778 C307.721278,248.53857 299.325683,260.113145 289.714824,270.643951 C252.406137,311.800988 184.864547,345.28642 139.264325,345.28642 C125.846063,345.28642 115.200222,343.122963 107.211017,337.582716 C106.936854,337.389666 106.635541,337.238227 106.316895,337.133333 C106.066026,337.133333 106.027431,336.908642 105.879482,337.133333 C105.825054,337.233683 105.798409,337.346698 105.802292,337.460741 C111.724905,341.853487 117.911736,345.879802 124.327985,349.517037 C130.528946,351.821728 137.720518,353.054321 145.947726,353.054321 C188.511793,353.054321 258.188983,319.761481 296.745582,269.87358 C303.585812,258.915481 309.753092,247.553013 315.213383,235.848889 L314.743808,236.137778 Z" id="Shape"></path>
                <path d="M318.937819,226.867654 C318.826036,226.811828 318.702591,226.783228 318.577597,226.784198 C318.283449,226.78517 318.011799,226.941486 317.863586,227.195062 C310.81901,239.804347 302.371099,251.579931 292.680222,262.298272 C253.814861,305.156543 182.542403,340.015802 133.796673,340.015802 C119.690129,340.015802 108.253087,337.120494 99.8007394,331.387654 C99.6640667,331.301116 99.5058802,331.254421 99.3440296,331.25284 C99.0898066,331.254349 98.8512745,331.375759 98.7007763,331.580247 C98.6300185,331.670123 98.6428835,331.779259 98.6171534,331.888395 C102.476673,334.969877 106.336192,337.845926 110.195712,340.555062 C117.953346,344.695802 127.634307,346.917037 139.296488,346.917037 C186.106026,346.917037 252.721331,313.900247 290.949871,271.741728 C299.994011,261.771852 306.716007,251.371852 312.569612,241.337778 C314.846728,236.681317 317.038078,231.92 319.14366,227.053827 C319.079335,226.98963 319.053604,226.906173 318.969982,226.861235" id="Shape"></path>
                <path d="M325.196673,211.331852 C325.091731,211.284065 324.977524,211.259954 324.862181,211.261235 C324.562315,211.259802 324.285766,211.422445 324.141738,211.684938 C317.61915,223.811852 306.29146,241.755062 289.361035,258.401481 C252.740628,294.422716 180.998595,333.30716 128.940111,333.30716 C112.286285,333.30716 98.4113124,329.397531 88.1514233,321.680988 C87.8077131,321.412875 87.3119437,321.470076 87.0385952,321.809383 C87,321.854321 87.0385952,321.912099 87.0385952,321.950617 C91.7943808,326.286091 96.6209242,330.351934 101.518226,334.148148 C109.977006,339.04 120.712902,341.62716 133.79024,341.62716 C182.934787,341.62716 254.754011,306.517531 293.889538,263.37037 C302.697151,253.610226 310.482357,242.977384 317.123845,231.637531 C320.057079,225.127901 322.848799,218.444938 325.421811,211.550123 C325.357486,211.473086 325.306026,211.37679 325.21597,211.331852" id="Shape"></path>
                <path d="M329.056192,200.46963 C328.954597,200.426225 328.845073,200.404364 328.734566,200.405432 C328.436063,200.402713 328.159841,200.562701 328.014122,200.822716 C316.615675,222.007901 303.023734,239.527407 286.479261,254.344198 C239.213013,296.695309 170.52,327.407407 123.150832,327.407407 C106.638521,327.407407 93.1430684,323.799506 83.0182625,316.67358 C82.6696677,316.430799 82.1923584,316.49805 81.924732,316.827654 C81.8604067,316.891852 81.8732717,316.981728 81.8411091,317.071605 C84.716451,319.832099 87.6303882,322.515556 90.5507579,325.089877 C100.707726,331.599506 113.566359,334.918519 128.940111,334.918519 C181.410277,334.918519 253.660481,295.790123 290.506026,259.544198 C303.572331,246.538341 314.764722,231.783796 323.762218,215.703704 C325.691978,210.760494 327.52525,205.759506 329.242736,200.642963 C329.17841,200.572346 329.15268,200.495309 329.056192,200.45679" id="Shape"></path>
                <path d="M334.768281,181.576296 C334.683628,181.546237 334.594398,181.531033 334.504547,181.531358 C334.176813,181.530907 333.881601,181.729017 333.758373,182.032099 C323.935896,205.4 304.676895,230.385679 282.265952,248.861728 C231.828466,290.42321 164.376932,319.479012 118.236377,319.479012 C97.6973013,319.479012 81.2686137,314.478025 69.8765989,303.898272 C69.7262965,303.759383 69.5282163,303.683527 69.3234011,303.68642 C69.1694309,303.702985 69.0227763,303.760644 68.898854,303.853333 C73.877634,309.284444 78.9914972,314.484444 84.2275786,319.389136 C94.3523845,325.808889 106.88939,329.076543 123.157264,329.076543 C170.893087,329.076543 240.036377,298.171852 287.572791,255.58963 C303.654122,241.183704 316.911571,224.177778 328.142773,203.865679 C330.630018,196.684115 332.907135,189.316379 334.974122,181.762469 C334.909797,181.711111 334.871201,181.627654 334.781146,181.595556" id="Shape"></path>
                <path d="M337.032532,172.928889 C336.946185,172.896806 336.854472,172.881551 336.762366,172.883951 C336.447955,172.885714 336.161548,173.064673 336.022625,173.346173 C325.852791,194.871605 311.810573,218.361481 278.219889,244.265185 C223.993641,286.096296 159.372421,313.123457 113.624251,313.123457 C93.6834011,313.123457 77.5184473,308.205926 65.5925323,298.518519 C65.4497278,298.400588 65.2697071,298.33691 65.0843623,298.338765 C64.8628739,298.337491 64.6508274,298.428187 64.4990018,298.589136 C64.428244,298.659753 64.428244,298.762469 64.3896488,298.852346 C66.8468762,301.638519 69.3426987,304.399012 71.8771165,307.082469 C83.3913494,316.346173 98.8937523,321.083951 118.236377,321.083951 C164.730721,321.083951 232.613235,291.899753 283.308022,250.12 C305.088577,232.17679 323.832976,208.154074 334.02854,185.325432 C335.17353,181.306667 336.267061,177.242963 337.244806,173.127901 C337.181308,173.047175 337.10265,172.979577 337.013235,172.928889" id="Shape"></path>
                <path d="M340.924214,154.96642 C340.851587,154.957488 340.778136,154.957488 340.705508,154.96642 C340.366006,154.967608 340.062044,155.176645 339.940037,155.49284 C328.104177,186.795556 306.233567,213.70716 273.118891,237.755556 C216.358226,278.957531 152.740481,304.520988 107.075933,304.520988 C86.311719,304.520988 69.6514603,299.320988 57.5454344,289.049383 C57.3976117,288.926309 57.2104511,288.86025 57.0179667,288.86321 C56.8058669,288.861407 56.6019235,288.944673 56.4519039,289.094321 C56.3875786,289.158519 56.3875786,289.241975 56.3425508,289.319012 C59.6059889,293.312099 62.9530499,297.234568 66.3837338,301.08642 C78.4833272,310.131852 94.3009242,314.741235 113.624251,314.741235 C159.713346,314.741235 224.714085,287.57284 279.223364,245.542716 C311.932791,220.319506 326.251608,197.356049 336.427874,176.209383 C338.198965,169.310288 339.768503,162.269959 341.136488,155.088395 C341.059298,155.037037 341.01427,154.96 340.930647,154.934321" id="Shape"></path>
                <path d="M342.422994,146.63358 C342.351903,146.612962 342.278317,146.602162 342.204288,146.601481 C341.870325,146.6032 341.570483,146.806079 341.44525,147.115062 C329.171978,178.116049 304.721922,206.581235 268.757634,231.714568 C223.729908,263.209877 156.252643,296.855802 101.955638,296.855802 C80.7604436,296.855802 63.7463956,291.598025 51.3766359,281.217284 C51.2291034,281.093702 51.0417468,281.027574 50.8491682,281.031111 C50.6399455,281.027887 50.4382344,281.108874 50.2895379,281.255802 C50.2252126,281.32 50.21878,281.409877 50.1801848,281.486914 C52.7531978,284.867984 55.3862477,288.195556 58.0793346,291.46963 C70.4104991,301.208395 86.8198891,306.145185 107.069501,306.145185 C153.055675,306.145185 217.065804,280.427654 274.064473,239.033086 C306.703142,215.337778 328.438669,188.817778 340.570425,158.112099 C341.316599,154.375802 342.009168,150.607407 342.648133,146.806914 C342.570943,146.749136 342.51305,146.659259 342.410129,146.63358" id="Shape"></path>
                <path d="M344.532865,132.112099 C344.471014,132.103053 344.408172,132.103053 344.346322,132.112099 C344.006249,132.111458 343.701348,132.32114 343.58085,132.638519 C330.381294,167.683951 303.120222,198.883951 262.530943,225.378272 C201.601996,265.180741 141.219815,287.990123 96.8739372,287.990123 C74.2507209,287.990123 56.2782255,282.10963 43.4839187,270.496296 C43.1730524,270.223623 42.707687,270.223623 42.3968207,270.496296 C42.3324954,270.560494 42.3260628,270.643951 42.2810351,270.714568 C45.2828835,274.994403 48.4069501,279.23786 51.6532348,283.444938 C64.3060259,293.453333 81.1528281,298.512099 101.96207,298.512099 C156.638595,298.512099 224.469649,264.712099 269.709649,233.075556 C305.236525,208.231111 329.5322,180.112593 342.178558,149.49037 C343.156303,143.828148 344.06329,138.114568 344.751571,132.298272 C344.686048,132.225226 344.604632,132.168129 344.513567,132.131358" id="Shape"></path>
                <path d="M345.645693,121.712099 C345.59226,121.706055 345.538313,121.706055 345.48488,121.712099 C345.125845,121.711381 344.809124,121.946491 344.706543,122.289877 C335.057745,154.388642 304.130129,188.702222 257.648651,218.984198 C200.579224,256.148148 134.62647,280.177284 89.6180407,280.177284 C67.1041774,280.177284 49.9807763,274.534321 38.6466543,263.408889 C38.3531017,263.113476 37.8828862,263.088485 37.5595564,263.351111 C37.4887985,263.415309 37.4759335,263.498765 37.4309057,263.569383 C39.4936044,266.655144 41.5970425,269.708807 43.74122,272.73037 C56.8700185,283.92 74.675268,289.588642 96.9060998,289.588642 C141.560739,289.588642 202.27098,266.676543 263.450795,226.71358 C303.686285,200.437531 330.870166,169.481481 344.417079,134.769877 C344.97671,130.500741 345.446285,126.193086 345.857967,121.846914 C345.780776,121.801975 345.735749,121.731358 345.645693,121.712099" id="Shape"></path>
                <path d="M347.067283,103.396543 C346.843203,103.310524 346.592554,103.327231 346.381927,103.442228 C346.1713,103.557224 346.022022,103.758866 345.973752,103.99358 C338.563475,140.098272 303.030166,180.18963 250.920222,211.203457 C186.356895,249.664198 127.557116,270.842963 85.3468392,270.842963 C62.035342,270.842963 43.9020333,264.506667 31.4422181,252.007407 C31.1546579,251.719371 30.6975458,251.689141 30.3744177,251.93679 C30.2907948,251.994568 30.2714972,252.097284 30.220037,252.180741 C32.9474307,256.706667 35.8485028,261.206914 38.8524954,265.662222 C50.5725693,276.38321 67.5415896,281.82716 89.6180407,281.82716 C134.915933,281.82716 201.228909,257.701728 258.53634,220.358025 C304.33597,190.512593 335.083475,156.686914 345.549205,124.857778 C346.276081,117.796049 346.835712,110.734321 347.163771,103.47358 C347.131312,103.451212 347.09686,103.431872 347.06085,103.415802" id="Shape"></path>
                <path d="M347.388909,93.7925926 C347.305287,93.7540741 347.247394,93.6834568 347.150906,93.6706173 L347.067283,93.6706173 C346.682397,93.6684488 346.349065,93.9367309 346.269649,94.3125926 C339.00732,131.380247 303.326063,170.515062 245.793494,204.514074 C183.642366,241.235062 122.880665,262.291852 79.0815527,262.291852 C56.7863956,262.291852 39.6565619,256.963457 28.1680591,246.46716 C28.0174048,246.328838 27.8195592,246.253071 27.6148614,246.255309 C27.4287078,246.255251 27.2485952,246.321237 27.1066913,246.441481 C27.0487985,246.48642 27.042366,246.557037 26.9973383,246.614815 C28.431793,249.137778 29.9112754,251.635062 31.4357856,254.138765 C44.2686876,266.336296 62.3119409,272.46716 85.3468392,272.46716 C127.801553,272.46716 186.92939,251.204938 251.750018,212.596543 C303.120222,182 338.441257,142.621235 346.951497,106.670617 C347.165915,102.390782 347.307431,98.0874074 347.376044,93.7604938" id="Shape"></path>
                <path d="M347.00939,77.037037 C346.919335,76.9920988 346.835712,76.9150617 346.726359,76.9150617 L346.726359,76.9150617 C346.298082,76.9141994 345.943051,77.2460285 345.91586,77.6725926 C343.413604,114.733827 302.425508,160.134321 238.942847,196.149136 C175.022773,232.395062 116.268022,252.373333 73.4723845,252.373333 C49.9743438,252.373333 32.5486137,246.364444 21.6840665,234.50716 C21.5285465,234.338499 21.3090728,234.242961 21.0794085,234.243951 C20.9151094,234.242503 20.7540236,234.289393 20.6162662,234.378765 C20.5390758,234.436543 20.5197782,234.52642 20.4683179,234.590617 C22.8290573,239.232099 25.3892052,243.87358 28.0844362,248.508642 C39.862403,258.716049 56.9858041,263.916049 79.0879852,263.916049 C123.170129,263.916049 184.234159,242.769383 246.636155,205.900741 C303.416118,172.363951 338.994455,133.729877 347.356747,96.8612346 C347.433937,93.8632099 347.54329,90.8780247 347.54329,87.8735802 C347.54329,84.1244444 347.343882,80.5550617 347.03512,77.0819753" id="Shape"></path>
                <path d="M347.170203,80.497284 C346.928412,75.5842852 346.348113,70.6937182 345.43342,65.8602469 C345.35324,65.8100613 345.263386,65.7772535 345.169686,65.7639506 L345.098928,65.7639506 C344.683913,65.7968375 344.36136,66.1381753 344.352754,66.5535802 C343.632311,104.121975 303.8278,147.442469 232.201553,188.471111 C171.092495,223.516543 111.482218,243.61037 68.705878,243.61037 C45.1177819,243.61037 27.8271349,237.537284 17.3163771,225.564444 C17.0482983,225.26425 16.6019197,225.201773 16.2614418,225.41679 C16.1906839,225.461728 16.1713863,225.545185 16.1199261,225.609383 C17.7923845,229.242963 19.5613309,232.889383 21.4589279,236.522963 C32.6965619,248.078519 50.1480222,253.984691 73.4659519,253.984691 C116.563919,253.984691 175.595268,233.948642 239.721183,197.561481 C302.168207,162.137284 342.911867,117.564938 347.144473,80.4780247" id="Shape"></path>
                <path d="M345.825804,68.4730864 C344.774422,62.2449157 343.048981,56.1489904 340.679778,50.2923457 L340.679778,50.2923457 C340.605213,50.2803539 340.529205,50.2803539 340.45464,50.2923457 C340.052316,50.4102472 339.803036,50.8110673 339.875712,51.2232099 C346.835712,88.4577778 301.569982,138.949136 224.566137,179.90716 C160.813309,213.854815 103.171386,232.536296 62.3634011,232.536296 C37.8232902,232.536296 20.8285397,225.846914 11.8487246,212.635062 C11.7037976,212.420845 11.4643537,212.289412 11.2054713,212.281975 C11.0735491,212.280911 10.9433311,212.311749 10.8259519,212.371852 C10.742329,212.41679 10.7037338,212.519506 10.645841,212.583704 C12.5412939,217.505514 14.6640296,222.476543 17.0140481,227.49679 C27.8785952,239.244938 45.2335675,245.234568 68.705878,245.234568 C111.752384,245.234568 171.626396,225.057284 233.018484,189.877037 C303.956451,149.207901 343.851017,106.189136 345.825804,68.4666667" id="Shape"></path>
                <path d="M341.663956,52.7446914 C340.231377,48.8407068 338.477902,45.0615847 336.421442,41.4459259 C336.382847,41.4459259 336.369982,41.3945679 336.331386,41.3945679 C336.246294,41.3946926 336.161712,41.4076793 336.080518,41.4330864 C335.695097,41.5579691 335.459655,41.9459496 335.52732,42.3446914 C341.959852,79.4380247 298.128577,127.284444 218.281553,170.335309 C156.760813,203.493333 97.9481701,222.527901 56.9279113,222.527901 C34.6970795,222.527901 18.7251017,217.039012 9.44295749,206.221728 C9.28450295,206.032487 9.04655551,205.927998 8.79970425,205.939259 C8.65514158,205.938041 8.51292363,205.975742 8.38802218,206.048395 C8.33012939,206.048395 8.31726433,206.138272 8.2722366,206.18321 C9.24140481,208.990782 10.2941959,211.819753 11.43061,214.670123 C21.0279482,227.612346 38.0677264,234.154074 62.3441035,234.154074 C103.422255,234.154074 161.302181,215.408395 225.325176,181.364444 C301.788688,140.708148 347.041553,90.5185185 341.663956,52.7446914" id="Shape"></path>
                <path d="M337.193346,42.8839506 C335.330357,39.3962423 333.178698,36.0699445 330.760813,32.9397531 C330.667386,32.9477665 330.576016,32.9716491 330.490647,33.0103704 C330.136248,33.2168624 329.990345,33.6537004 330.149723,34.0311111 C343.07268,64.8459259 290.370943,121.42963 210.163697,162.881975 C150.302551,193.818765 93.2073937,211.569383 53.5122366,211.569383 C27.6598891,211.569383 10.7744917,204.039012 4.68931608,189.79358 C4.55904383,189.494287 4.26367002,189.300282 3.9367098,189.299259 C3.851633,189.299578 3.76707975,189.312561 3.68584104,189.337778 C3.58935305,189.376296 3.53789279,189.466173 3.4607024,189.523951 C4.91966748,195.783353 6.74317002,201.95251 8.92192237,208 C18.6093161,218.682469 34.7099445,224.145679 56.9086137,224.145679 C98.1926063,224.145679 157.256118,205.046914 219.008429,171.760494 C298.939076,128.664691 342.963327,80.6 337.161183,42.8775309" id="Shape"></path>
                <path d="M332.143808,34.8720988 C329.992382,31.8870366 327.607003,29.0770649 325.010129,26.468642 C324.921618,26.4788212 324.83619,26.5072405 324.759261,26.5520988 C324.434395,26.7866477 324.328109,27.221825 324.508392,27.5792593 C339.521922,56.8083951 288.486211,109.803457 203.145804,153.592593 C143.966506,183.977284 87.797634,201.394074 49.0737893,201.394074 C25.85878,201.394074 10.1119409,194.858765 3.54432532,182.51358 C3.36421442,182.179753 3.19696858,181.839506 3.02972274,181.49284 C2.88190881,181.188387 2.57731163,180.990669 2.23852126,180.979259 C2.16825167,180.967527 2.09651728,180.967527 2.02624769,180.979259 C1.93938235,181.017305 1.86073875,181.07181 1.79467652,181.139753 C2.36073937,184.651358 3.12621072,188.25284 4.03319778,191.912099 C11.0124954,205.817284 27.9686506,213.155062 53.4993715,213.155062 C93.4389649,213.155062 150.810721,195.346667 210.897006,164.287901 C290.660407,123.079506 343.227061,66.7076543 332.15024,34.8335802" id="Shape"></path>
                <path d="M326.476747,28.0350617 C323.488726,24.8198731 320.213948,21.8825115 316.692865,19.2592593 C316.590957,19.275786 316.492888,19.3105856 316.403401,19.3619753 C316.111967,19.6099021 316.03417,20.0275671 316.216858,20.3634568 C319.394529,26.2503704 319.735453,33.3249383 317.233198,41.3881481 C308.32414,70.0780247 265.251904,107.209877 204.792532,138.345679 C143.130277,170.084938 83.217671,189.061728 44.5066913,189.061728 C23.7038817,189.061728 10.3177819,183.726914 4.71504621,173.198519 C3.13034654,170.147355 2.09402437,166.842492 1.65316081,163.434074 C1.59251837,163.030849 1.24478023,162.73299 0.836229205,162.734321 L0.784768946,162.734321 C0.694713494,162.734321 0.636820702,162.811358 0.559630314,162.843457 C0.559630314,163.79358 0.430979667,164.769383 0.430979667,165.693827 C0.49195726,171.657419 1.08176368,177.603918 2.19349353,183.463704 C9.12133087,196.30321 25.3120148,203.05037 49.0609242,203.05037 C88.0420702,203.05037 144.468244,185.562963 203.885545,155.069136 C288.942921,111.414815 340.010795,58.342716 326.470314,28.0671605" id="Shape"></path>
                <path d="M318.796303,41.8246914 C321.369316,33.6009877 321.002662,26.3402469 317.895749,20.1901235 C314.720949,17.7638828 311.366421,15.5813329 307.860998,13.6612346 C307.796673,13.6997531 307.706617,13.6612346 307.655157,13.7511111 C307.398533,14.0339995 307.377015,14.4581212 307.603697,14.7654321 C307.873863,15.1377778 308.118299,15.5037037 308.349871,15.8824691 C311.386026,20.9348148 311.836303,27.0785185 309.707135,34.1338272 C301.048946,62.8493827 250.527837,104.109136 186.910092,134.525926 C130.252348,161.598025 75.9038817,177.756543 41.6056192,177.756543 C21.7805545,177.756543 9.21138632,172.562963 4.25833641,162.317037 C3.04902033,159.813333 2.47009242,156.539259 2.53441774,152.687407 C2.54256019,152.256127 2.21269116,151.893148 1.78181146,151.859259 L1.71748614,151.859259 C1.64672828,151.859259 1.58883549,151.910617 1.52451017,151.929877 C0.847999942,156.392761 0.489024371,160.897857 0.450277264,165.411358 C0.967098924,168.383111 1.92082531,171.262402 3.2805915,173.956049 C9.18565619,185.030123 23.0541959,190.666667 44.5066913,190.666667 C83.4556747,190.666667 143.657745,171.651358 205.551571,139.802963 C266.396895,108.493827 309.790758,70.9382716 318.796303,41.8246914" id="Shape"></path>
                <path d="M311.263808,34.6088889 C313.534492,27.091358 313.019889,20.4854321 309.74573,15.054321 C309.617079,14.8424691 309.462699,14.6306173 309.327616,14.4123457 C303.332545,11.0147445 296.987656,8.27262015 290.403105,6.23358025 C290.319482,6.31061728 290.171534,6.30419753 290.126506,6.41975309 C289.966991,6.815515 290.13744,7.26728392 290.518891,7.45975309 C293.580776,8.96839506 295.664917,10.5283951 296.674824,12.0948148 C299.299298,16.1264198 299.78817,21.1466667 298.115712,27.0014815 C290.396673,53.9644444 238.13878,95.3333333 173.813457,125.429136 C120.564954,150.344198 72.1794455,164.634568 41.1424769,164.634568 C22.7132717,164.634568 10.7873567,159.620741 6.65123845,150.138765 C5.21678373,146.839012 5.0109427,142.435062 6.04014787,136.997531 C6.3231793,136.079506 6.62550832,135.161481 6.93426987,134.249877 C7.00339232,134.045584 6.98792477,133.822204 6.89130215,133.629342 C6.79467952,133.436481 6.62490008,133.290103 6.41966728,133.222716 C6.33732284,133.192353 6.25014843,133.177128 6.16236599,133.177778 C6.11733826,133.177778 6.09804067,133.248395 6.05301294,133.254815 C3.59406823,140.324513 1.93068067,147.645242 1.0935305,155.081975 C1.2736414,158.144198 1.73678373,160.859753 2.79171904,163.02321 C8.04066543,173.879012 21.0987061,179.380741 41.6056192,179.380741 C76.161183,179.380741 130.747652,163.164444 187.624104,136.002469 C251.640665,105.418765 302.483401,63.7288889 311.263808,34.6088889" id="Shape"></path>
                <path d="M299.678817,27.4508642 C301.486359,21.1209877 300.965323,15.651358 298.038521,11.2088889 C297.125102,9.80296296 295.529834,8.44197531 293.31061,7.12592593 C287.486337,5.11081479 281.513982,3.5503984 275.447468,2.45876543 C275.331682,2.56148148 275.145139,2.56790123 275.100111,2.72197531 C274.989158,3.13343317 275.217053,3.56023994 275.621146,3.69777778 C279.97597,5.20641975 282.857745,7.11308642 284.202144,9.36641975 C286.241257,12.7753086 286.504991,17.0701235 284.980481,22.0967901 C277.550906,46.7871605 230.972939,83.8997531 171.748614,112.345679 C119.645102,137.382716 72.3659889,151.692346 41.952976,151.692346 C25.3699076,151.692346 14.4474677,147.294815 10.3821072,138.981235 C8.62602588,135.392593 8.56170055,130.962963 10.1826987,125.82716 C10.3085809,125.415168 10.0916406,124.976525 9.68739372,124.825679 C9.59756892,124.789398 9.50123452,124.771918 9.40436229,124.774321 C9.40436229,124.774321 9.40436229,124.774321 9.3657671,124.774321 C7.23176791,129.577435 5.45166575,134.529505 4.03963031,139.591111 C3.52502773,144.05284 3.87238447,147.808395 5.15889094,150.761481 C9.57160813,160.911111 22.0121257,166.271605 41.168207,166.271605 C72.9191867,166.271605 120.288355,152.289383 174.527468,126.912099 C240.267948,96.1358025 291.753937,55.2098765 299.678817,27.4508642" id="Shape"></path>
                <path d="M286.543586,22.5654321 C288.196747,17.0701235 287.881553,12.3451852 285.604436,8.53185185 C284.31793,6.40691358 281.918595,4.60296296 278.528651,3.11358025 C268.652408,1.11595223 258.60424,0.0860400848 248.52732,0.0385185185 C248.461925,0.12395416 248.415841,0.222508441 248.392237,0.327407407 C248.36511,0.757395231 248.677883,1.13422678 249.106248,1.18765432 C258.870832,2.33679012 265.129686,4.87901235 267.233124,8.53185185 C268.918447,11.4528395 269.098558,15.0735802 267.767024,19.2977778 C260.864917,41.2276543 216.306765,75.1817284 159.49464,101.868642 C111.84244,124.241481 71.0087246,136.535309 44.5066913,136.535309 C29.8662477,136.535309 20.6355638,132.786173 17.0655083,125.397037 C15.2386691,121.628642 15.3608872,117.083457 17.4192976,111.915556 C17.5733227,111.530131 17.4127208,111.090735 17.0462107,110.894815 C16.9340338,110.839287 16.8111513,110.808627 16.6859889,110.804938 C13.2834394,116.421536 10.3427174,122.304177 7.89271719,128.395062 C7.04362292,132.677037 7.35238447,136.464691 8.92192237,139.661728 C13.3410721,148.70716 24.456488,153.290864 41.9594085,153.290864 C72.6039926,153.290864 120.159704,138.891358 172.42403,113.790123 C232.060037,85.177284 278.98536,47.6538272 286.543586,22.5654321" id="Shape"></path>
                <path d="M269.330129,19.785679 C270.796747,15.1120988 270.571608,11.0483951 268.648281,7.71654321 C266.570573,4.12148148 261.43098,1.59851852 253.371017,0.173333333 C251.222551,0.0962962963 249.080518,-4.4408921e-16 246.938484,-4.4408921e-16 C236.899255,0.0257554078 226.868905,0.597963279 216.892126,1.71407407 C216.85353,1.82320988 216.782773,1.91308642 216.795638,2.02864198 C216.826062,2.45267039 217.180178,2.78083885 217.606137,2.77975309 L217.606137,2.77975309 C219.484436,2.70271605 221.304843,2.65777778 223.054492,2.65777778 C236.311941,2.65777778 244.841479,4.92395062 247.08,9.03901235 C248.424399,11.517037 248.52732,14.5471605 247.388762,18.0266667 C241.361479,36.4641975 201.074529,66.3995062 149.356969,90.8266667 C108.613309,110.085926 71.6584104,121.115062 47.9416636,121.115062 C35.5333087,121.115062 27.537671,118.020741 24.7845471,112.127407 C22.9319778,108.134321 23.9032902,102.96642 27.6856192,96.7649383 C27.9089096,96.3971329 27.8075587,95.9194822 27.4540481,95.6735802 C27.3708266,95.627223 27.2787917,95.5987927 27.1838817,95.5901235 C22.8478465,101.095019 18.9220552,106.909782 15.4380776,112.987654 C13.810647,117.962963 13.8170795,122.373333 15.6310536,126.135309 C19.490573,134.127901 29.2229945,138.185185 44.538854,138.185185 C71.2467283,138.185185 112.32488,125.82716 160.170055,103.358025 C217.419593,76.4785185 262.299372,42.1135802 269.330129,19.785679" id="Shape"></path>
                <path d="M223.774935,1.04641975 C212.006198,2.08310521 200.307348,3.79789982 188.736932,6.18222222 C188.694389,6.27487262 188.672445,6.37561541 188.672606,6.47753086 C188.749737,6.85478597 189.084474,7.12419926 189.47024,7.11950617 L189.586026,7.11950617 C194.591481,6.35510924 199.645382,5.94962662 204.708909,5.90617284 C214.782255,5.90617284 221.330573,8.08246914 223.12525,12.0306173 C229.22329,25.4735802 192.332717,55.8004938 140.872458,79.6049383 C106.625656,95.4681481 73.1057301,105.316049 53.3900185,105.316049 C44.1143068,105.316049 38.2092421,103.152593 36.3052126,99.0503704 C33.8029575,93.6706173 38.074159,85.0553086 48.3276155,74.802963 C48.639062,74.4879665 48.639062,73.9816632 48.3276155,73.6666667 C48.2376497,73.6019815 48.1343698,73.5581199 48.0252865,73.5382716 C39.6107376,81.0741197 31.9303021,89.3884509 25.0868762,98.3698765 C22.1793715,104.038519 21.4975231,108.911111 23.3307948,112.859259 C26.34122,119.33679 34.8450277,122.758519 47.9352311,122.758519 C71.8706839,122.758519 109.095749,111.658765 150.04525,92.3096296 C202.93353,67.3175309 242.673715,37.6711111 248.926137,18.5402469 C250.212643,14.611358 250.071128,11.1511111 248.50159,8.26864198 C245.336784,2.42666667 233.500924,1.10419753 223.774935,1.04641975" id="Shape"></path>
                <path d="M224.598299,11.362963 C222.494861,6.72790123 215.592754,4.30123457 204.696044,4.30123457 C202.039409,4.30123457 199.093309,4.48740741 196.012126,4.7762963 C179.682196,7.73117959 163.595088,11.8941022 147.883919,17.2306173 C147.883919,17.3397531 147.826026,17.4360494 147.883919,17.5387654 C147.992888,17.8757996 148.307404,18.1040841 148.662255,18.1037037 C148.741177,18.1151175 148.821336,18.1151175 148.900259,18.1037037 C161.926137,14.1491358 173.253826,12.062716 181.648281,12.062716 C189.135749,12.062716 193.870092,13.7382716 195.330277,16.8967901 C200.051756,27.0271605 171.555638,50.2859259 131.821885,68.691358 C105.403475,80.9338272 79.3645841,88.5412346 63.8686137,88.5412346 C56.7156377,88.5412346 52.1742699,86.917037 50.7526802,83.8548148 C48.3083179,78.5906173 54.7215527,69.4103704 68.3392237,58.6637037 C68.6846706,58.3879017 68.7500027,57.888962 68.4871719,57.5338272 C68.416414,57.4439506 68.3006285,57.4503704 68.2041405,57.3925926 C59.1708449,63.8096126 50.6304155,70.8910391 42.654122,78.5777778 C35.1473567,87.3150617 32.407098,94.5758025 34.8192976,99.762963 C37.0385213,104.545679 43.2845102,106.972346 53.383586,106.972346 C73.6203327,106.972346 106.580628,97.3041975 141.554307,81.1135802 C195.587579,56.0765432 231.300998,26.0962963 224.604732,11.362963" id="Shape"></path>
                <path d="M196.78403,16.1777778 C195.015083,12.3259259 189.907652,10.4 181.628983,10.4 C175.608133,10.4 168.043475,11.4785185 159.526802,13.4814815 C123.163697,24.3950617 88.5052126,41.4523457 60.851756,62.9135802 C51.0871719,71.862716 46.9124584,79.482963 49.2731978,84.5738272 C51.003549,88.3101235 55.9180037,90.2039506 63.8686137,90.2039506 C79.5832902,90.2039506 105.885915,82.5387654 132.503734,70.2 C174.424547,50.7160494 202.058706,27.534321 196.78403,16.1777778 M122.346765,57.2641975 C104.618706,65.3916049 87.5789279,70.4375309 77.8658041,70.4375309 C73.8519039,70.4375309 71.3303512,69.577284 70.5777449,67.9402469 C68.0754898,62.4962963 84.0860628,48.0839506 111.971091,35.3150617 C129.081627,27.4765432 145.915564,22.6039506 155.911719,22.6039506 C160.240813,22.6039506 162.948909,23.5155556 163.740111,25.2360494 C166.12658,30.4232099 150.977967,44.1422222 122.346765,57.2641975" id="Shape"></path>
                <path d="M165.219593,24.5298765 C164.126063,22.1545679 160.99342,20.9476543 155.911719,20.9476543 C145.696858,20.9476543 128.599187,25.8780247 111.295675,33.7871605 C87.6689834,44.6108642 65.4252865,60.5832099 69.0982625,68.5693827 C70.1467652,70.8548148 73.0992976,72.0103704 77.8658041,72.0103704 C87.7912015,72.0103704 105.101146,66.9066667 123.022181,58.6893827 C146.822551,47.7758025 168.918299,32.5545679 165.219593,24.5041975 M142.403401,31.8933333 C141.567172,34.9041975 133.15342,41.522963 118.686654,48.2958025 C107.42329,53.5920988 96.5909057,57.0074074 91.084658,57.0074074 C89.5472828,57.0074074 88.4730499,56.7185185 88.1385582,56.2241975 C87.977759,55.9506566 87.9562844,55.6172697 88.0806654,55.3254321 C88.9426248,52.2311111 97.536488,45.342716 111.771682,38.6340741 C122.706987,33.4982716 133.468614,30.1728395 139.17427,30.1728395 C140.833863,30.1728395 141.985287,30.4745679 142.339076,31.0074074 C142.500453,31.2686693 142.524446,31.5919336 142.403401,31.8740741" id="Shape"></path>
                <path d="M143.69634,30.1214815 C142.995194,29.0750617 141.515712,28.5614815 139.193567,28.5614815 C133.269205,28.5614815 122.237412,31.9446914 111.096266,37.1832099 C97.7744917,43.4360494 87.6754159,50.7160494 86.5111275,54.8888889 C86.2587891,55.6368793 86.3605466,56.4587692 86.7877264,57.122963 C87.4695749,58.137284 88.8718669,58.6316049 91.0910906,58.6316049 C96.8096118,58.6316049 107.918595,55.1520988 119.394233,49.7659259 C130.696192,44.4567901 142.686433,37.0034568 143.985804,32.3298765 C144.234635,31.5900418 144.132856,30.7774231 143.709205,30.1214815" id="Shape"></path>
            </g>
        </g>
    </g>
</svg>