<?xml version="1.0" encoding="UTF-8"?>
<svg width="333px" height="454px" viewBox="0 0 433 454" version="1.1" xmlns="http://www.w3.org/2000/svg" xmlns:xlink="http://www.w3.org/1999/xlink">
    <!-- Generator: Sketch 46.2 (44496) - http://www.bohemiancoding.com/sketch -->
    <title>Artboard 52</title>
    <desc>Created with Sketch.</desc>
    <defs></defs>
    <g id="WEBB" stroke="none" stroke-width="1" fill="none" fill-rule="evenodd">
        <g id="Artboard-52" fill-rule="nonzero">
            <path d="M336.26732,381.49612 C336.211294,381.384021 336.20329,381.263915 336.123253,381.191852 C335.939222,381.012062 335.692161,380.911471 335.434935,380.911605 C335.168605,380.909001 334.91223,381.012747 334.722606,381.199859 C311.750391,403.462445 284.940966,421.38268 255.590055,434.094462 C232.907579,444.007196 212.762274,449.027619 195.722403,449.027619 C192.935993,449.036037 190.151417,448.88365 187.382551,448.571217 L187.286506,448.571217 C186.80869,448.571581 186.395631,448.904833 186.294048,449.371922 C186.294048,449.500035 186.334067,449.604127 186.358078,449.724233 C195.112191,452.410706 204.206391,453.826372 213.362551,453.927937 C250.891885,453.927937 296.448928,427.432593 336.291331,381.480106" id="Shape" fill="#AF5AFF"></path>
            <path d="M330.776784,387.709594 C342.56049,374.738293 353.34057,360.888818 363.023678,346.281093 C362.959649,346.168995 362.935638,346.040882 362.83159,345.960811 C362.727542,345.880741 362.455416,346.168995 362.255323,346.168995 C362.055231,346.168995 361.030758,347.265961 360.822662,347.51418 C337.323808,377.652734 290.005952,417.808113 232.267283,435.671852 C215.299445,440.916473 199.996377,443.590829 186.798281,443.590829 C180.680455,443.657907 174.577875,442.966708 168.629889,441.533016 C168.544847,441.522382 168.458813,441.522382 168.373771,441.533016 C167.945795,441.532316 167.563989,441.801939 167.421331,442.205608 C167.373309,442.325714 167.421331,442.437813 167.421331,442.549912 C174.733041,445.979504 182.341161,448.737265 190.15183,450.789171 C191.99268,450.917284 193.809519,451.109453 195.706396,451.109453 C213.034399,451.109453 233.443826,446.016966 256.382421,436.000141 C283.681945,424.155649 308.822892,407.852502 330.776784,387.757637" id="Shape" fill="#AF5AFF"></path>
            <path d="M372.44403,330.691358 C371.992154,330.394845 371.38736,330.503895 371.067394,330.939577 C324.253771,395.172169 235.308688,438.306173 181.603882,438.306173 C169.982514,438.306173 159.9939,436.416508 151.862144,432.701235 C151.729331,432.638963 151.58462,432.606185 151.437948,432.60515 C151.060895,432.604722 150.715098,432.814758 150.541534,433.14963 C150.510429,433.283971 150.510429,433.423648 150.541534,433.557989 C156.963343,437.419747 163.622307,440.872308 170.478743,443.895097 C175.845252,445.043945 181.318285,445.621001 186.806285,445.616614 C200.220481,445.616614 215.715638,442.918236 232.875564,437.609559 C287.228669,420.794744 332.921774,383.201623 358.029372,353.535485 C363.071701,346.339812 367.951288,338.823857 372.668133,330.987619 C372.5961,330.891534 372.572089,330.763422 372.452033,330.683351" id="Shape" fill="#AF5AFF"></path>
            <path d="M391.620887,294.523492 C382.883084,309.990414 372.436841,324.426835 360.478503,337.561411 C314.057061,388.894638 230.018244,430.659436 173.280037,430.659436 C156.584325,430.659436 143.338207,427.961058 133.397616,421.05097 C133.056367,420.81039 132.681488,420.621523 132.285102,420.490476 C131.972957,420.490476 131.924935,420.210229 131.74085,420.490476 C131.673127,420.615638 131.639975,420.756596 131.644806,420.898836 C139.013827,426.377998 146.711828,431.399842 154.695453,435.936085 C162.411017,438.810617 171.35915,440.347972 181.595878,440.347972 C234.55634,440.347972 321.252384,398.823386 369.226543,336.600564 C377.737502,322.933035 385.411157,308.761167 392.205157,294.163175 L391.620887,294.523492 Z" id="Shape" fill="#AF5AFF"></path>
            <path d="M396.839298,282.961305 C396.700212,282.891675 396.546614,282.856004 396.391091,282.857213 C396.025096,282.858427 395.687095,283.053392 395.50268,283.369665 C386.737389,299.096594 376.226055,313.783717 364.168207,327.15224 C315.809871,380.607337 227.128909,424.085644 166.476895,424.085644 C148.924787,424.085644 134.694214,420.474462 124.177357,413.316155 C124.007301,413.20822 123.810477,413.14998 123.609094,413.148007 C123.292777,413.14989 122.995982,413.301319 122.808725,413.556367 C122.720684,413.668466 122.736691,413.804586 122.704677,413.940705 C127.506895,417.784092 132.309113,421.371252 137.111331,424.750229 C146.763789,429.91478 158.809353,432.68522 173.320055,432.68522 C231.562957,432.68522 314.449242,391.504938 362.015213,338.92261 C373.26841,326.487654 381.632274,313.516226 388.915638,301.001199 C391.748946,295.193416 394.475539,289.25485 397.095416,283.185503 C397.015379,283.105432 396.983364,283.00134 396.879316,282.945291" id="Shape" fill="#AF5AFF"></path>
            <path d="M404.626895,263.584233 C404.49632,263.52463 404.354218,263.494558 404.210702,263.496155 C403.837594,263.494368 403.493496,263.697225 403.314288,264.024621 C395.19854,279.149947 381.10403,301.529665 360.038299,322.291958 C314.473253,367.219541 225.208022,415.718272 160.434104,415.718272 C139.712532,415.718272 122.448558,410.841975 109.682662,401.217496 C109.254999,400.883092 108.638137,400.954435 108.298022,401.377637 C108.25,401.433686 108.298022,401.50575 108.298022,401.553792 C114.215422,406.961223 120.220863,412.032357 126.314344,416.767196 C136.839205,422.868571 150.197375,426.095414 166.468891,426.095414 C227.617135,426.095414 316.97841,382.304832 365.672902,328.489418 C376.6318,316.316051 386.318565,303.05421 394.582255,288.910547 C398.231941,280.791393 401.705545,272.456049 404.907024,263.856473 C404.826987,263.760388 404.762957,263.640282 404.650906,263.584233" id="Shape" fill="#AF5AFF"></path>
            <path d="M409.429113,250.036296 C409.302703,249.98216 409.166427,249.954893 409.028928,249.956226 C408.657515,249.952834 408.313826,250.15238 408.132514,250.476684 C393.949963,276.899965 377.038152,298.751217 356.452643,317.231499 C297.641479,370.054039 212.17,408.359788 153.230776,408.359788 C132.685287,408.359788 115.89353,403.859824 103.295712,394.971993 C102.86397,394.667336 102.270382,394.747679 101.935083,395.156155 C101.855046,395.244233 101.871054,395.348325 101.831035,395.460423 C105.408688,398.903457 109.034362,402.250406 112.668041,405.461235 C125.305878,413.580388 141.305268,417.720035 160.434104,417.720035 C225.720259,417.720035 315.617782,368.917037 361.462957,323.709206 C377.720149,307.490075 391.646289,289.090156 402.84207,269.037037 C405.243179,262.871605 407.524233,256.634109 409.66122,250.252487 C409.581183,250.164409 409.549168,250.068325 409.429113,250.020282" id="Shape" fill="#AF5AFF"></path>
            <path d="M416.536396,226.471534 C416.431066,226.434042 416.320042,226.415079 416.208244,226.415485 C415.80046,226.414922 415.433142,226.662015 415.279815,227.040035 C403.05817,256.185714 379.095102,287.349171 351.210222,310.393474 C288.453235,362.231146 204.52647,398.471076 147.115952,398.471076 C121.560148,398.471076 101.118706,392.23358 86.944159,379.037954 C86.7571447,378.864725 86.5106829,378.770113 86.255841,378.773721 C86.0642632,378.794383 85.8817877,378.866297 85.727597,378.981905 C91.9224584,385.755873 98.2853974,392.241587 104.800407,398.358977 C117.398226,406.366032 132.997431,410.441623 153.23878,410.441623 C212.634214,410.441623 298.665952,371.895661 357.813272,318.784868 C377.822514,300.817037 394.318133,279.606349 408.292588,254.272028 C411.387351,245.314803 414.223327,236.125373 416.800518,226.703739 C416.720481,226.639683 416.672458,226.535591 416.560407,226.495556" id="Shape" fill="#9933FF"></path>
            <path d="M419.353697,215.686032 C419.24631,215.645822 419.132159,215.626789 419.017542,215.629982 C418.626335,215.632181 418.269972,215.855389 418.097116,216.20649 C405.443272,243.054145 387.971201,272.351958 346.175896,304.660423 C278.704732,356.834392 198.299593,390.544092 141.377301,390.544092 C116.565841,390.544092 96.4525508,384.410688 81.6136969,372.328042 C81.4339069,372.179157 81.206757,372.099621 80.9734011,372.103845 C80.6978136,372.102255 80.4339741,372.215376 80.2450647,372.41612 C80.157024,372.504198 80.157024,372.63231 80.1090018,372.744409 C83.166414,376.219471 86.2718484,379.662504 89.425305,383.009453 C103.751922,394.563633 123.040832,400.47284 147.107948,400.47284 C204.958669,400.47284 289.421682,364.072769 352.498817,311.962857 C379.599335,289.583139 402.922107,259.620741 415.607967,231.147654 C417.032625,226.135238 418.393253,221.066772 419.609815,215.93425 C419.530957,215.833421 419.433057,215.749083 419.321682,215.686032" id="Shape" fill="#9933FF"></path>
            <path d="M424.195933,193.282293 C424.105577,193.270989 424.014164,193.270989 423.923808,193.282293 C423.501382,193.283775 423.123176,193.544497 422.971368,193.938871 C408.244566,232.98127 381.031996,266.546843 339.828965,296.54127 C269.204344,347.930547 190.047782,379.814638 133.229538,379.814638 C107.393604,379.814638 86.6640296,373.328924 71.6010721,360.517637 C71.4171433,360.364133 71.1842682,360.28174 70.9447689,360.285432 C70.6808631,360.283184 70.4271059,360.387037 70.2404436,360.573686 C70.1604067,360.653757 70.1604067,360.757848 70.1043808,360.853933 C74.164923,365.834321 78.3295132,370.726631 82.5981516,375.530864 C97.6531054,386.812804 117.334196,392.561869 141.377301,392.561869 C198.723789,392.561869 279.601146,358.676014 347.424473,306.253827 C388.123272,274.794109 405.939501,246.152875 418.601349,219.777637 C420.805034,211.172722 422.757936,202.391652 424.460055,193.434427 C424.364011,193.37037 424.307985,193.274286 424.203937,193.242257" id="Shape" fill="#9933FF"></path>
            <path d="M426.060795,182.889136 C425.97234,182.86342 425.88078,182.84995 425.788669,182.849101 C425.373135,182.851244 425.000055,183.104285 424.844233,183.489665 C409.573179,222.155732 379.151128,257.659012 334.402458,289.014638 C278.37658,328.297249 194.4178,370.262222 126.858595,370.262222 C100.486414,370.262222 79.3166359,363.704444 63.9255268,350.757037 C63.7419592,350.6029 63.5088401,350.52042 63.2692237,350.524832 C63.0088977,350.520812 62.7579181,350.621823 62.572902,350.805079 C62.4928651,350.88515 62.4848614,350.997249 62.4368392,351.093333 C65.6383179,355.310382 68.9144978,359.460705 72.2653789,363.544303 C87.6084658,375.691005 108.025896,381.84843 133.221534,381.84843 C190.439963,381.84843 270.08475,349.772169 341.005508,298.142681 C381.616266,268.588642 408.660758,235.511499 423.75573,197.213757 C424.684159,192.553651 425.54589,187.85351 426.340924,183.113333 C426.24488,183.04127 426.172847,182.929171 426.044787,182.897143" id="Shape" fill="#9933FF"></path>
            <path d="M428.686007,164.769171 C428.609049,164.757888 428.530858,164.757888 428.4539,164.769171 C428.030763,164.768372 427.65139,165.029899 427.50146,165.42575 C411.077874,209.136261 377.158207,248.058554 326.65488,281.095661 C250.843863,330.7394 175.713161,359.188466 120.535675,359.188466 C92.3866728,359.188466 70.0243438,351.854004 54.1049908,337.369242 C53.719551,337.025568 53.1378058,337.025568 52.752366,337.369242 C52.672329,337.449312 52.6643253,337.553404 52.6082994,337.641481 C56.343358,342.979518 60.2304868,348.272181 64.2696858,353.519471 C80.0129575,366.002469 100.97464,372.312028 126.866599,372.312028 C194.898022,372.312028 279.297006,330.154885 335.587006,290.69612 C379.791423,259.708818 410.021386,224.637919 425.756654,186.444268 C426.973216,179.382046 428.101738,172.255767 428.958133,165.001376 C428.876606,164.91027 428.775303,164.839054 428.661996,164.793192" id="Shape" fill="#9933FF"></path>
            <path d="M430.070647,151.80575 C430.004155,151.798346 429.937047,151.798346 429.870555,151.80575 C429.423825,151.804855 429.029744,152.098096 428.902107,152.526384 C416.896562,192.561658 378.414787,235.359365 320.580074,273.128642 C249.571275,319.481481 167.509372,349.451887 111.507505,349.451887 C83.4945656,349.451887 62.1887246,342.413686 48.0862107,328.53746 C47.720957,328.169006 47.13589,328.137836 46.733586,328.465397 C46.6455453,328.545467 46.6295379,328.649559 46.573512,328.737637 C49.1400308,332.586361 51.7572397,336.39505 54.4251386,340.163704 C70.7606839,354.12 92.9149168,361.190229 120.575693,361.190229 C176.137357,361.190229 251.676248,332.613051 327.799409,282.769136 C377.862532,249.988254 411.686155,211.386243 428.541941,168.092099 C429.238262,162.767407 429.822532,157.394674 430.334769,151.973898 C430.238725,151.917848 430.182699,151.829771 430.070647,151.80575" id="Shape" fill="#9933FF"></path>
            <path d="M431.839464,128.953616 C431.722221,128.907128 431.597405,128.882697 431.471294,128.881552 C430.994539,128.884908 430.583116,129.21684 430.478835,129.682257 C421.258577,174.713933 377.046155,224.717989 312.208207,263.400071 C231.875102,311.370335 158.713309,337.785608 106.19305,337.785608 C77.1876525,337.785608 54.6252311,329.882646 39.1220702,314.29291 C38.7642727,313.933656 38.1955096,313.895951 37.7934566,314.204832 C37.6894085,314.276896 37.6653974,314.405009 37.6013678,314.509101 C40.9949353,320.154074 44.6046026,325.767019 48.342329,331.323915 C62.9250647,344.719718 84.038817,351.5097 111.507505,351.5097 C167.869538,351.5097 250.379649,321.419189 321.684584,274.842152 C378.670906,237.617354 416.928577,195.428183 429.950591,155.729206 C430.855009,146.921446 431.551331,138.113686 431.959519,129.057707 C431.918915,129.030158 431.876079,129.006053 431.83146,128.985644" id="Shape" fill="#9933FF"></path>
            <path d="M432.239649,116.983069 C432.135601,116.935026 432.063567,116.846949 431.943512,116.830935 L431.839464,116.830935 C431.360569,116.82823 430.945819,117.162846 430.847006,117.63164 C421.810832,163.864374 377.414325,212.675379 305.829261,255.080741 C228.497542,300.881093 152.894621,327.144233 98.3974492,327.144233 C70.6566359,327.144233 49.3427911,320.498377 35.0481885,307.406843 C34.8607365,307.234319 34.6145664,307.139819 34.3598706,307.14261 C34.1282485,307.142538 33.9041429,307.224839 33.7275786,307.374815 C33.6555453,307.430864 33.6475416,307.518942 33.5915157,307.591005 C35.3763401,310.737778 37.2171904,313.852522 39.1140665,316.975273 C55.0814418,332.188677 77.5318115,339.835414 106.19305,339.835414 C159.017449,339.835414 232.587431,313.316049 313.240684,265.161623 C377.158207,227 421.106506,177.884727 431.695397,133.04522 C431.962187,127.707184 432.138269,122.339788 432.223641,116.943034" id="Shape" fill="#9933FF"></path>
            <path d="M431.767431,96.0846561 C431.655379,96.0286067 431.551331,95.932522 431.415268,95.932522 L431.415268,95.932522 C430.882384,95.9314465 430.440635,96.3453213 430.406802,96.8773545 C427.293364,143.102081 376.293808,199.727972 297.305323,244.647549 C217.772588,289.855379 144.666821,314.773333 91.4182255,314.773333 C62.1807209,314.773333 40.4987061,307.27873 26.9804621,292.4897 C26.7869559,292.279336 26.513875,292.160176 26.2281146,292.161411 C26.023685,292.159606 25.8232535,292.21809 25.6518484,292.329559 C25.5558041,292.401623 25.531793,292.513721 25.4677634,292.593792 C28.4051201,298.382892 31.5905915,304.171993 34.9441405,309.953086 C49.5989094,322.684303 70.9047505,329.170018 98.4054529,329.170018 C153.254787,329.170018 229.233882,302.79478 306.877745,256.810265 C377.526377,214.981411 421.794824,166.786949 432.19963,120.810441 C432.295675,117.071146 432.431738,113.347866 432.431738,109.600564 C432.431738,104.924444 432.183623,100.472522 431.799445,96.1407055" id="Shape" fill="#9933FF"></path>
            <path d="M431.967523,100.400459 C431.666674,94.2727073 430.944635,88.1729343 429.806525,82.1443739 C429.707318,82.0806484 429.595264,82.0396359 429.478373,82.0242681 L429.390333,82.0242681 C428.873949,82.0652864 428.472612,82.4910208 428.461904,83.0091358 C427.56549,129.86642 378.038614,183.898025 288.917449,235.071111 C212.882329,278.781623 138.71207,303.843704 85.4874861,303.843704 C56.1379298,303.843704 34.6239926,296.26903 21.5459519,281.335873 C21.2123941,280.961455 20.6569862,280.88353 20.2333457,281.151711 C20.145305,281.20776 20.1212939,281.311852 20.0572643,281.391922 C22.1382255,285.923915 24.3392421,290.471922 26.7003327,295.003915 C40.6827911,309.416614 62.3968207,316.783104 91.4102218,316.783104 C145.034991,316.783104 218.484917,291.793086 298.273771,246.409101 C375.97366,202.226173 426.669076,146.633192 431.935508,100.376437" id="Shape" fill="#9933FF"></path>
            <path d="M430.29475,85.3952381 C428.986565,77.627135 426.83968,70.0239755 423.891793,62.7192593 L423.891793,62.7192593 C423.799015,62.7043024 423.704442,62.7043024 423.611664,62.7192593 C423.111072,62.8663123 422.800904,63.3662363 422.891331,63.8802822 C431.551331,110.321199 375.229316,173.296684 279.417061,224.381693 C200.092421,266.731005 128.371294,290.023527 77.595841,290.023527 C47.0617375,290.023527 25.9159704,281.680176 14.7428096,265.201658 C14.5624838,264.934475 14.2645551,264.770546 13.9424399,264.76127 C13.7782953,264.759943 13.6162711,264.798405 13.4702218,264.873369 C13.3661738,264.929418 13.3181516,265.057531 13.2461183,265.137601 C15.604541,271.276343 18.2457609,277.476473 21.1697782,283.737989 C34.6880222,298.398907 56.2819963,305.869489 85.4874861,305.869489 C139.048226,305.869489 213.546636,280.703316 289.933919,236.824656 C378.198688,186.099965 427.837616,132.444691 430.29475,85.3952381" id="Shape" fill="#FFCD64"></path>
            <path d="M425.116359,65.7859612 C423.33397,60.9166638 421.1522,56.2031351 418.593346,51.693545 C418.545323,51.693545 418.529316,51.6294885 418.481294,51.6294885 C418.375418,51.629644 418.270176,51.6458418 418.16915,51.6775309 C417.689589,51.8332911 417.396639,52.3172008 417.480832,52.8145326 C425.484529,99.0792945 370.947338,158.755873 271.597449,212.451182 C195.050092,253.815626 121.872292,277.548536 70.8327172,277.548536 C43.1719409,277.548536 23.2987616,270.702504 11.749427,257.210617 C11.5522695,256.974585 11.2562027,256.844261 10.9490573,256.858307 C10.7691848,256.856787 10.5922297,256.90381 10.4368207,256.994427 C10.3647874,256.994427 10.34878,257.106526 10.2927542,257.162575 C11.4986445,260.664327 12.8085829,264.192769 14.2225693,267.747901 C26.164085,283.890123 47.365878,292.049312 77.5718299,292.049312 C128.683438,292.049312 200.700702,268.668713 280.361497,226.207302 C375.501442,175.498624 431.807449,112.899471 425.116359,65.7859612" id="Shape" fill="#FFCD64"></path>
            <path d="M419.553789,53.4871252 C417.235857,49.1370147 414.558644,44.9882727 411.550092,41.0841975 C411.433871,41.0943463 411.32021,41.1241272 411.213937,41.1722751 C410.772975,41.4298229 410.591435,41.9746703 410.789741,42.4453968 C426.869168,80.8792593 361.29488,151.453439 261.496784,203.154991 C187.014381,241.740988 115.973567,263.880494 66.5827542,263.880494 C34.4158965,263.880494 13.4061922,254.488219 5.83469501,236.720564 C5.67260339,236.347271 5.30508367,236.105297 4.89826248,236.104021 C4.79240543,236.104419 4.6871998,236.120611 4.5861183,236.152063 C4.46606285,236.200106 4.40203327,236.312205 4.30598891,236.384268 C6.12127526,244.191335 8.39017412,251.885834 11.1011275,259.428571 C23.154695,272.75231 43.1879482,279.566314 70.8087061,279.566314 C122.176433,279.566314 195.666377,255.745326 272.501867,214.228748 C371.955804,160.47739 426.733105,100.528571 419.513771,53.4791182" id="Shape" fill="#FFCD64"></path>
            <path d="M413.270887,43.494321 C410.59405,39.7711318 407.626029,36.2663808 404.394787,33.0130864 C404.2849,33.0268687 404.178819,33.0622438 404.082643,33.1171781 C403.678428,33.4097199 403.546182,33.9524961 403.770499,34.3983069 C422.451128,70.8544268 358.949797,136.952663 252.76475,191.568783 C179.130739,229.466173 109.242458,251.189312 61.0602033,251.189312 C32.1748614,251.189312 12.5818115,243.038131 4.41003697,227.640564 C4.18593346,227.224198 3.97783734,226.799824 3.76974122,226.367443 C3.58582332,225.987714 3.2068274,225.741109 2.78528651,225.726878 C2.69785337,225.712245 2.60859765,225.712245 2.52116451,225.726878 C2.41308206,225.774331 2.31522953,225.842313 2.23303142,225.927055 C2.93735675,230.306914 3.88979667,234.798871 5.01831793,239.362892 C13.702329,256.706173 34.8000739,265.858236 66.5667468,265.858236 C116.261701,265.858236 187.646673,243.646667 262.409205,204.908536 C361.655046,153.511252 427.061257,83.2013051 413.278891,43.4462787" id="Shape" fill="#FFCD64"></path>
            <path d="M406.21963,34.9668078 C402.501901,30.9565286 398.427238,27.2928856 394.046007,24.021164 C393.919074,24.0412501 393.796958,24.0846873 393.685841,24.1492769 C393.326007,24.4601088 393.229598,24.9789415 393.453734,25.3983774 C397.40756,32.7408466 397.831756,41.5646208 394.718318,51.6214815 C383.633198,87.4050088 330.040444,133.717813 254.813697,172.552028 C178.090259,212.138907 103.543826,235.80776 55.3775786,235.80776 C29.4936229,235.80776 12.8379298,229.153898 5.8667098,216.022328 C3.89494268,212.216756 2.60549584,208.094757 2.05695009,203.843598 C1.98149556,203.340675 1.54882138,202.969169 1.04048059,202.970829 L0.976451017,202.970829 C0.864399261,202.970829 0.792365989,203.066914 0.696321627,203.106949 C0.696321627,204.291993 0.536247689,205.46903 0.536247689,206.662081 C0.612202967,214.100182 1.34607058,221.516963 2.72926063,228.825608 C11.3492421,244.839718 31.4945471,253.255132 61.0441959,253.255132 C109.546599,253.255132 179.755028,231.443915 253.685176,193.410406 C359.518059,138.962434 423.059409,72.7681129 406.211627,35.006843" id="Shape" fill="#FF9B00"></path>
            <path d="M396.663216,52.1659612 C399.864695,41.9089242 399.408484,32.8529453 395.542699,25.1821869 C391.592445,22.1560516 387.418563,19.4338603 383.056932,17.0390123 C382.976895,17.0870547 382.864843,17.0390123 382.800813,17.1511111 C382.484523,17.5051898 382.45786,18.031997 382.736784,18.4162257 C383.072939,18.8806349 383.377079,19.337037 383.665213,19.8094533 C387.442957,26.1110053 388.003216,33.7737566 385.353993,42.5735097 C374.581017,78.3890653 311.719982,129.850406 232.56342,167.787831 C162.066858,201.55358 94.4436229,221.707337 51.7679113,221.707337 C27.1005176,221.707337 11.4612939,215.22963 5.29844732,202.45037 C3.79375231,199.327619 3.07341959,195.244021 3.15345656,190.439788 C3.16358783,189.901873 2.75314733,189.449146 2.21702403,189.406878 L2.13698706,189.406878 C2.0489464,189.406878 1.97691312,189.470935 1.89687616,189.494956 C1.055153,195.061304 0.608496763,200.680295 0.56025878,206.309771 C1.2034294,210.01627 2.39010077,213.607456 4.0818854,216.96716 C11.4292791,230.77933 28.6852495,237.809524 55.3775786,237.809524 C103.839963,237.809524 178.746562,214.092628 255.758133,174.36963 C331.465102,135.319224 385.458041,88.4779541 396.663216,52.1659612" id="Shape" fill="#FF9B00"></path>
            <path d="M387.290887,43.1660317 C390.116192,33.7897707 389.475896,25.5505115 385.402015,18.7765432 C385.241941,18.5123104 385.049852,18.2480776 384.881774,17.9758377 C377.422391,13.7381704 369.527745,10.3180482 361.334898,7.77485009 C361.23085,7.87093474 361.046765,7.86292769 360.990739,8.00705467 C360.792261,8.5006698 361.004343,9.06413984 361.478965,9.30419753 C365.288725,11.1858554 367.881922,13.1315697 369.138503,15.085291 C372.404011,20.1137213 373.012292,26.3752381 370.931331,33.677672 C361.326895,67.3073016 296.304861,118.904762 216.267893,156.441834 C150.01329,187.517213 89.8094824,205.340917 51.1916451,205.340917 C28.2610536,205.340917 13.4221996,199.087407 8.27582255,187.260988 C6.49099815,183.145362 6.23487985,177.652522 7.51547135,170.870547 C7.86763401,169.725538 8.24380776,168.580529 8.62798521,167.443527 C8.71399102,167.188723 8.69474548,166.910111 8.5745225,166.669564 C8.45429952,166.429018 8.24305096,166.246448 7.98768946,166.162399 C7.88527884,166.124356 7.77677989,166.10536 7.66754159,166.106349 C7.61151571,166.106349 7.58750462,166.194427 7.53147874,166.202434 C4.47186595,175.020116 2.40218957,184.150923 1.36062847,193.42642 C1.58473198,197.245785 2.16099815,200.632769 3.47360444,203.331146 C10.0046211,216.871076 26.2521257,223.733122 51.7679113,223.733122 C94.7637708,223.733122 162.683142,203.507302 233.45183,169.629453 C313.104621,131.483845 376.365841,79.4860317 387.290887,43.1660317" id="Shape" fill="#FF9B00"></path>
            <path d="M372.876229,34.2381658 C375.125268,26.3432099 374.476969,19.5211993 370.835287,13.9803175 C369.698762,12.2267725 367.713845,10.5292769 364.952569,8.88783069 C357.705776,6.37423043 350.274637,4.42799172 342.726303,3.06670194 C342.582237,3.19481481 342.350129,3.20282187 342.294104,3.39499118 C342.156049,3.90818313 342.43961,4.44051905 342.942403,4.61206349 C348.360906,6.49372134 351.946562,8.87181658 353.619335,11.6822928 C356.156506,15.9340388 356.492662,21.2907584 354.587782,27.5602822 C345.343512,58.3554145 287.388743,104.644198 213.698706,140.123457 C148.868762,171.35097 90.0415896,189.198695 52.2001109,189.198695 C31.5665804,189.198695 17.9763031,183.713862 12.9179667,173.344727 C10.7329575,168.868783 10.6529205,163.343915 12.6698521,156.938272 C12.8264815,156.424412 12.5565528,155.877315 12.0535675,155.689171 C11.9417397,155.644138 11.8219207,155.622343 11.7014048,155.625115 C11.7014048,155.625115 11.7014048,155.625115 11.6533826,155.625115 C8.99835917,161.615897 6.78346754,167.792364 5.02632163,174.105397 C4.38602588,179.6703 4.81822551,184.354427 6.41896488,188.037672 C11.9095009,200.696825 27.3886506,207.382716 51.2236599,207.382716 C90.7299076,207.382716 149.669131,189.943351 217.156303,158.291464 C298.954085,119.905644 363.015675,68.8606702 372.876229,34.2381658" id="Shape" fill="#FF9B00"></path>
            <path d="M356.53268,28.1447972 C358.58963,21.2907584 358.197449,15.3975661 355.36414,10.6413757 C353.763401,7.99104056 350.778022,5.7410582 346.560074,3.88342152 C334.271592,1.39146996 321.769091,0.106905135 309.230832,0.048042328 C309.149244,0.154468893 309.091881,0.27744137 309.062754,0.408359788 C309.029002,0.944663283 309.41817,1.41466747 309.951165,1.48130511 C322.100776,2.9145679 329.888373,6.08536155 332.505582,10.6413757 C334.602551,14.2845855 334.826654,18.8005644 333.169889,24.0692063 C324.581922,51.4213051 269.140314,93.7706173 198.451664,127.055944 C139.160277,154.960529 88.3528096,170.294039 55.3775786,170.294039 C37.1611645,170.294039 25.6758595,165.617919 21.2338078,156.401799 C18.9607579,151.701658 19.1128281,146.032663 21.6740111,139.586984 C21.8656572,139.106263 21.6658279,138.558225 21.2097967,138.313862 C21.0702203,138.244605 20.9173233,138.206365 20.7615896,138.201764 C16.52805,145.207131 12.869052,152.544264 9.82053604,160.141093 C8.76404806,165.481799 9.14822551,170.205961 11.1011275,174.193474 C16.5996673,185.475414 30.4300555,191.192451 52.2081146,191.192451 C90.3377264,191.192451 149.509057,173.232628 214.539094,141.925044 C288.741368,106.237601 347.128336,59.4363668 356.53268,28.1447972" id="Shape" fill="#FF9B00"></path>
            <path d="M335.114787,24.6777425 C336.93963,18.8486067 336.659501,13.7801411 334.266396,9.62447972 C331.681201,5.1405291 325.286248,1.99375661 315.257616,0.216190476 C312.584381,0.12010582 309.91915,0 307.253919,0 C294.762583,0.0322823701 282.2823,0.745969715 269.868651,2.1378836 C269.820628,2.27400353 269.732588,2.38610229 269.748595,2.53022928 C269.786451,3.05909989 270.22706,3.46840889 270.757061,3.46705467 L270.757061,3.46705467 C273.09414,3.37097002 275.359187,3.31492063 277.536192,3.31492063 C294.031811,3.31492063 304.644713,6.14141093 307.43,11.273933 C309.102773,14.3646561 309.230832,18.1439859 307.814177,22.4838095 C300.314713,45.4800705 250.18756,82.8169665 185.837837,113.28381 C135.142421,137.304974 89.161183,151.061093 59.6515527,151.061093 C44.2124214,151.061093 34.2638262,147.201693 30.838244,139.851217 C28.5331793,134.870829 29.7417375,128.42515 34.4479113,120.690335 C34.725741,120.231589 34.5996349,119.635838 34.1597782,119.329136 C34.0568326,119.26992 33.9420059,119.234364 33.8236229,119.225044 C28.4284289,126.090989 23.5437483,133.343474 19.2088725,140.924162 C17.1839372,147.12963 17.1919409,152.630476 19.4489834,157.32261 C24.2512015,167.291393 36.3607948,172.351852 55.417597,172.351852 C88.6489464,172.351852 139.760555,156.938272 199.292052,128.91358 C270.524954,95.3880423 326.366747,52.5262787 335.114787,24.6777425" id="Shape" fill="#FF9B00"></path>
            <path d="M278.432606,1.30514991 C263.789298,2.59796353 249.232959,4.73674746 234.83647,7.71079365 C234.783536,7.82635212 234.756232,7.95200383 234.756433,8.07911817 C234.855246,8.54791269 235.269995,8.88252828 235.748891,8.87982363 L235.892957,8.87982363 C242.121025,7.92656378 248.409346,7.42082526 254.709649,7.3664903 C267.243438,7.3664903 275.391201,10.0808818 277.624233,15.0052205 C285.211738,31.7719929 239.310536,69.5973192 175.280961,99.287478 C132.669279,119.07291 90.9620148,131.355732 66.4306839,131.355732 C54.889353,131.355732 47.5419593,128.657354 45.1728651,123.540847 C42.059427,116.830935 47.3738817,106.085467 60.1317745,93.2982011 C60.5192926,92.9053208 60.5192926,92.2738326 60.1317745,91.8809524 C60.0198342,91.8002736 59.891328,91.7455672 59.7556007,91.7208113 C49.2858753,101.120021 39.7294806,111.490084 31.2144177,122.692099 C27.5967468,129.762328 26.7483549,135.84769 29.0294085,140.764021 C32.7751386,148.843139 43.3560259,153.110899 59.643549,153.110899 C89.425305,153.110899 135.742699,139.266702 186.694233,115.133439 C252.500628,83.9619753 301.947468,46.9853968 309.727061,23.1243739 C311.3278,18.2240564 311.151719,13.908254 309.198817,10.3130864 C305.260998,3.02666667 290.534196,1.3772134 278.432606,1.30514991" id="Shape" fill="#00CDCD"></path>
            <path d="M279.457079,14.1644797 C276.839871,8.38338624 268.251904,5.35671958 254.693641,5.35671958 C251.388115,5.35671958 247.722421,5.58892416 243.888651,5.94924162 C223.569879,9.63734442 203.553446,14.8322384 184.004991,21.4909347 C184.004991,21.6270547 183.932957,21.7471605 184.004991,21.8752734 C184.183927,22.3970087 184.738617,22.6885189 185.269575,22.5398589 C201.477061,17.6075132 215.571571,15.0052205 226.016396,15.0052205 C235.332699,15.0052205 241.22342,17.0950617 243.040259,21.0345326 C248.914972,33.7097002 213.458595,62.7112522 164.01976,85.675485 C131.148577,100.944938 98.7496118,110.433298 79.4687061,110.433298 C70.5685952,110.433298 64.9179852,108.407513 63.1491682,104.588148 C60.1077634,98.0223633 68.0874492,86.5722751 85.0312754,73.1684656 C85.4610987,72.8244709 85.5423884,72.2021669 85.2153604,71.759224 C85.1273198,71.6471252 84.9832532,71.6551323 84.8631978,71.5830688 C73.6236938,79.5869747 62.9972589,88.4192877 53.0725139,98.0063492 C43.7321996,108.903951 40.3226248,117.959929 43.3240111,124.42963 C46.0852865,130.394885 53.8568762,133.421552 66.4226802,133.421552 C91.6023105,133.421552 132.613253,121.362928 176.129353,101.169136 C243.360407,69.9416226 287.796932,32.5486772 279.465083,14.1724868" id="Shape" fill="#00CDCD"></path>
            <path d="M244.849094,20.1777778 C242.648078,15.373545 236.293142,12.9714286 225.992384,12.9714286 C218.500924,12.9714286 209.088577,14.3166138 198.491682,16.8148148 C153.246784,30.4268078 110.122865,51.701552 75.7149723,78.4291005 C63.5653604,89.5909347 58.3709612,99.0953086 61.3083179,105.444903 C63.4613124,110.105009 69.5761368,112.46709 79.4687061,112.46709 C99.0217375,112.46709 131.748854,102.906667 164.868152,87.5171076 C217.028244,63.2557319 251.412126,34.3422575 244.849094,20.1777778 M152.230314,71.4229277 C130.172126,81.5598589 108.970333,87.8534039 96.8847505,87.8534039 C91.8904436,87.8534039 88.7529945,86.7804586 87.8165619,84.7386596 C84.7031238,77.9486772 104.624325,59.9728395 139.320351,44.0468078 C160.610185,34.270194 181.55586,28.1928395 193.993604,28.1928395 C199.380092,28.1928395 202.749649,29.3298413 203.734104,31.4757319 C206.703475,37.9454321 187.854769,55.0565079 152.230314,71.4229277" id="Shape" fill="#00CDCD"></path>
            <path d="M205.574954,30.5949559 C204.214325,27.6323457 200.316525,26.1270194 193.993604,26.1270194 C181.283734,26.1270194 160.009908,32.2764374 138.479963,42.1411287 C109.082384,55.6410229 81.4056007,75.562575 85.9757116,85.523351 C87.2803142,88.3738624 90.9540111,89.8151323 96.8847505,89.8151323 C109.234455,89.8151323 130.772403,83.4495238 153.070702,73.2004938 C182.684381,59.5885009 210.177079,40.6037743 205.574954,30.5629277 M177.185841,39.7790476 C176.14536,43.5343563 165.676525,51.7896296 147.676211,60.2370723 C133.661738,66.8428924 120.183512,71.1026455 113.332348,71.1026455 C111.419464,71.1026455 110.082847,70.742328 109.666654,70.1257848 C109.466579,69.7846101 109.43986,69.3687924 109.594621,69.0047972 C110.667116,65.1453968 121.360055,56.5538272 139.072237,48.186455 C152.678521,41.7808113 166.068706,37.633157 173.167985,37.633157 C175.232939,37.633157 176.665601,38.0094885 177.105804,38.6740741 C177.306598,38.9999336 177.336452,39.403126 177.185841,39.7550265" id="Shape" fill="#00CDCD"></path>
            <path d="M178.794584,37.5691005 C177.922181,36.2639506 176.081331,35.6233862 173.191996,35.6233862 C165.820591,35.6233862 152.094251,39.8431041 138.231848,46.3768607 C121.656192,54.1757319 109.090388,63.2557319 107.641719,68.4603175 C107.327746,69.3932506 107.454358,70.4183549 107.985878,71.2467725 C108.83427,72.5118871 110.579076,73.1284303 113.340351,73.1284303 C120.455638,73.1284303 134.278022,68.7886067 148.556617,62.0706878 C162.619113,55.4488536 177.538004,46.1526631 179.15475,40.3235273 C179.464359,39.4007664 179.33772,38.3872255 178.810591,37.5691005" id="Shape" fill="#00CDCD"></path>
            <g id="Group" opacity="0.3" fill="#FFFFFF">
                <path d="M336.26732,381.49612 C336.211294,381.384021 336.20329,381.263915 336.123253,381.191852 C335.939222,381.012062 335.692161,380.911471 335.434935,380.911605 C335.168605,380.909001 334.91223,381.012747 334.722606,381.199859 C311.750391,403.462445 284.940966,421.38268 255.590055,434.094462 C232.907579,444.007196 212.762274,449.027619 195.722403,449.027619 C192.935993,449.036037 190.151417,448.88365 187.382551,448.571217 L187.286506,448.571217 C186.80869,448.571581 186.395631,448.904833 186.294048,449.371922 C186.294048,449.500035 186.334067,449.604127 186.358078,449.724233 C195.112191,452.410706 204.206391,453.826372 213.362551,453.927937 C250.891885,453.927937 296.448928,427.432593 336.291331,381.480106" id="Shape"></path>
                <path d="M330.776784,387.709594 C342.56049,374.738293 353.34057,360.888818 363.023678,346.281093 C362.959649,346.168995 362.935638,346.040882 362.83159,345.960811 C362.727542,345.880741 362.455416,346.168995 362.255323,346.168995 C362.055231,346.168995 361.030758,347.265961 360.822662,347.51418 C337.323808,377.652734 290.005952,417.808113 232.267283,435.671852 C215.299445,440.916473 199.996377,443.590829 186.798281,443.590829 C180.680455,443.657907 174.577875,442.966708 168.629889,441.533016 C168.544847,441.522382 168.458813,441.522382 168.373771,441.533016 C167.945795,441.532316 167.563989,441.801939 167.421331,442.205608 C167.373309,442.325714 167.421331,442.437813 167.421331,442.549912 C174.733041,445.979504 182.341161,448.737265 190.15183,450.789171 C191.99268,450.917284 193.809519,451.109453 195.706396,451.109453 C213.034399,451.109453 233.443826,446.016966 256.382421,436.000141 C283.681945,424.155649 308.822892,407.852502 330.776784,387.757637" id="Shape"></path>
                <path d="M372.44403,330.691358 C371.992154,330.394845 371.38736,330.503895 371.067394,330.939577 C324.253771,395.172169 235.308688,438.306173 181.603882,438.306173 C169.982514,438.306173 159.9939,436.416508 151.862144,432.701235 C151.729331,432.638963 151.58462,432.606185 151.437948,432.60515 C151.060895,432.604722 150.715098,432.814758 150.541534,433.14963 C150.510429,433.283971 150.510429,433.423648 150.541534,433.557989 C156.963343,437.419747 163.622307,440.872308 170.478743,443.895097 C175.845252,445.043945 181.318285,445.621001 186.806285,445.616614 C200.220481,445.616614 215.715638,442.918236 232.875564,437.609559 C287.228669,420.794744 332.921774,383.201623 358.029372,353.535485 C363.071701,346.339812 367.951288,338.823857 372.668133,330.987619 C372.5961,330.891534 372.572089,330.763422 372.452033,330.683351" id="Shape"></path>
                <path d="M391.620887,294.523492 C382.883084,309.990414 372.436841,324.426835 360.478503,337.561411 C314.057061,388.894638 230.018244,430.659436 173.280037,430.659436 C156.584325,430.659436 143.338207,427.961058 133.397616,421.05097 C133.056367,420.81039 132.681488,420.621523 132.285102,420.490476 C131.972957,420.490476 131.924935,420.210229 131.74085,420.490476 C131.673127,420.615638 131.639975,420.756596 131.644806,420.898836 C139.013827,426.377998 146.711828,431.399842 154.695453,435.936085 C162.411017,438.810617 171.35915,440.347972 181.595878,440.347972 C234.55634,440.347972 321.252384,398.823386 369.226543,336.600564 C377.737502,322.933035 385.411157,308.761167 392.205157,294.163175 L391.620887,294.523492 Z" id="Shape"></path>
                <path d="M396.839298,282.961305 C396.700212,282.891675 396.546614,282.856004 396.391091,282.857213 C396.025096,282.858427 395.687095,283.053392 395.50268,283.369665 C386.737389,299.096594 376.226055,313.783717 364.168207,327.15224 C315.809871,380.607337 227.128909,424.085644 166.476895,424.085644 C148.924787,424.085644 134.694214,420.474462 124.177357,413.316155 C124.007301,413.20822 123.810477,413.14998 123.609094,413.148007 C123.292777,413.14989 122.995982,413.301319 122.808725,413.556367 C122.720684,413.668466 122.736691,413.804586 122.704677,413.940705 C127.506895,417.784092 132.309113,421.371252 137.111331,424.750229 C146.763789,429.91478 158.809353,432.68522 173.320055,432.68522 C231.562957,432.68522 314.449242,391.504938 362.015213,338.92261 C373.26841,326.487654 381.632274,313.516226 388.915638,301.001199 C391.748946,295.193416 394.475539,289.25485 397.095416,283.185503 C397.015379,283.105432 396.983364,283.00134 396.879316,282.945291" id="Shape"></path>
                <path d="M404.626895,263.584233 C404.49632,263.52463 404.354218,263.494558 404.210702,263.496155 C403.837594,263.494368 403.493496,263.697225 403.314288,264.024621 C395.19854,279.149947 381.10403,301.529665 360.038299,322.291958 C314.473253,367.219541 225.208022,415.718272 160.434104,415.718272 C139.712532,415.718272 122.448558,410.841975 109.682662,401.217496 C109.254999,400.883092 108.638137,400.954435 108.298022,401.377637 C108.25,401.433686 108.298022,401.50575 108.298022,401.553792 C114.215422,406.961223 120.220863,412.032357 126.314344,416.767196 C136.839205,422.868571 150.197375,426.095414 166.468891,426.095414 C227.617135,426.095414 316.97841,382.304832 365.672902,328.489418 C376.6318,316.316051 386.318565,303.05421 394.582255,288.910547 C398.231941,280.791393 401.705545,272.456049 404.907024,263.856473 C404.826987,263.760388 404.762957,263.640282 404.650906,263.584233" id="Shape"></path>
                <path d="M409.429113,250.036296 C409.302703,249.98216 409.166427,249.954893 409.028928,249.956226 C408.657515,249.952834 408.313826,250.15238 408.132514,250.476684 C393.949963,276.899965 377.038152,298.751217 356.452643,317.231499 C297.641479,370.054039 212.17,408.359788 153.230776,408.359788 C132.685287,408.359788 115.89353,403.859824 103.295712,394.971993 C102.86397,394.667336 102.270382,394.747679 101.935083,395.156155 C101.855046,395.244233 101.871054,395.348325 101.831035,395.460423 C105.408688,398.903457 109.034362,402.250406 112.668041,405.461235 C125.305878,413.580388 141.305268,417.720035 160.434104,417.720035 C225.720259,417.720035 315.617782,368.917037 361.462957,323.709206 C377.720149,307.490075 391.646289,289.090156 402.84207,269.037037 C405.243179,262.871605 407.524233,256.634109 409.66122,250.252487 C409.581183,250.164409 409.549168,250.068325 409.429113,250.020282" id="Shape"></path>
                <path d="M416.536396,226.471534 C416.431066,226.434042 416.320042,226.415079 416.208244,226.415485 C415.80046,226.414922 415.433142,226.662015 415.279815,227.040035 C403.05817,256.185714 379.095102,287.349171 351.210222,310.393474 C288.453235,362.231146 204.52647,398.471076 147.115952,398.471076 C121.560148,398.471076 101.118706,392.23358 86.944159,379.037954 C86.7571447,378.864725 86.5106829,378.770113 86.255841,378.773721 C86.0642632,378.794383 85.8817877,378.866297 85.727597,378.981905 C91.9224584,385.755873 98.2853974,392.241587 104.800407,398.358977 C117.398226,406.366032 132.997431,410.441623 153.23878,410.441623 C212.634214,410.441623 298.665952,371.895661 357.813272,318.784868 C377.822514,300.817037 394.318133,279.606349 408.292588,254.272028 C411.387351,245.314803 414.223327,236.125373 416.800518,226.703739 C416.720481,226.639683 416.672458,226.535591 416.560407,226.495556" id="Shape"></path>
                <path d="M419.353697,215.686032 C419.24631,215.645822 419.132159,215.626789 419.017542,215.629982 C418.626335,215.632181 418.269972,215.855389 418.097116,216.20649 C405.443272,243.054145 387.971201,272.351958 346.175896,304.660423 C278.704732,356.834392 198.299593,390.544092 141.377301,390.544092 C116.565841,390.544092 96.4525508,384.410688 81.6136969,372.328042 C81.4339069,372.179157 81.206757,372.099621 80.9734011,372.103845 C80.6978136,372.102255 80.4339741,372.215376 80.2450647,372.41612 C80.157024,372.504198 80.157024,372.63231 80.1090018,372.744409 C83.166414,376.219471 86.2718484,379.662504 89.425305,383.009453 C103.751922,394.563633 123.040832,400.47284 147.107948,400.47284 C204.958669,400.47284 289.421682,364.072769 352.498817,311.962857 C379.599335,289.583139 402.922107,259.620741 415.607967,231.147654 C417.032625,226.135238 418.393253,221.066772 419.609815,215.93425 C419.530957,215.833421 419.433057,215.749083 419.321682,215.686032" id="Shape"></path>
                <path d="M424.195933,193.282293 C424.105577,193.270989 424.014164,193.270989 423.923808,193.282293 C423.501382,193.283775 423.123176,193.544497 422.971368,193.938871 C408.244566,232.98127 381.031996,266.546843 339.828965,296.54127 C269.204344,347.930547 190.047782,379.814638 133.229538,379.814638 C107.393604,379.814638 86.6640296,373.328924 71.6010721,360.517637 C71.4171433,360.364133 71.1842682,360.28174 70.9447689,360.285432 C70.6808631,360.283184 70.4271059,360.387037 70.2404436,360.573686 C70.1604067,360.653757 70.1604067,360.757848 70.1043808,360.853933 C74.164923,365.834321 78.3295132,370.726631 82.5981516,375.530864 C97.6531054,386.812804 117.334196,392.561869 141.377301,392.561869 C198.723789,392.561869 279.601146,358.676014 347.424473,306.253827 C388.123272,274.794109 405.939501,246.152875 418.601349,219.777637 C420.805034,211.172722 422.757936,202.391652 424.460055,193.434427 C424.364011,193.37037 424.307985,193.274286 424.203937,193.242257" id="Shape"></path>
                <path d="M426.060795,182.889136 C425.97234,182.86342 425.88078,182.84995 425.788669,182.849101 C425.373135,182.851244 425.000055,183.104285 424.844233,183.489665 C409.573179,222.155732 379.151128,257.659012 334.402458,289.014638 C278.37658,328.297249 194.4178,370.262222 126.858595,370.262222 C100.486414,370.262222 79.3166359,363.704444 63.9255268,350.757037 C63.7419592,350.6029 63.5088401,350.52042 63.2692237,350.524832 C63.0088977,350.520812 62.7579181,350.621823 62.572902,350.805079 C62.4928651,350.88515 62.4848614,350.997249 62.4368392,351.093333 C65.6383179,355.310382 68.9144978,359.460705 72.2653789,363.544303 C87.6084658,375.691005 108.025896,381.84843 133.221534,381.84843 C190.439963,381.84843 270.08475,349.772169 341.005508,298.142681 C381.616266,268.588642 408.660758,235.511499 423.75573,197.213757 C424.684159,192.553651 425.54589,187.85351 426.340924,183.113333 C426.24488,183.04127 426.172847,182.929171 426.044787,182.897143" id="Shape"></path>
                <path d="M428.686007,164.769171 C428.609049,164.757888 428.530858,164.757888 428.4539,164.769171 C428.030763,164.768372 427.65139,165.029899 427.50146,165.42575 C411.077874,209.136261 377.158207,248.058554 326.65488,281.095661 C250.843863,330.7394 175.713161,359.188466 120.535675,359.188466 C92.3866728,359.188466 70.0243438,351.854004 54.1049908,337.369242 C53.719551,337.025568 53.1378058,337.025568 52.752366,337.369242 C52.672329,337.449312 52.6643253,337.553404 52.6082994,337.641481 C56.343358,342.979518 60.2304868,348.272181 64.2696858,353.519471 C80.0129575,366.002469 100.97464,372.312028 126.866599,372.312028 C194.898022,372.312028 279.297006,330.154885 335.587006,290.69612 C379.791423,259.708818 410.021386,224.637919 425.756654,186.444268 C426.973216,179.382046 428.101738,172.255767 428.958133,165.001376 C428.876606,164.91027 428.775303,164.839054 428.661996,164.793192" id="Shape"></path>
                <path d="M430.070647,151.80575 C430.004155,151.798346 429.937047,151.798346 429.870555,151.80575 C429.423825,151.804855 429.029744,152.098096 428.902107,152.526384 C416.896562,192.561658 378.414787,235.359365 320.580074,273.128642 C249.571275,319.481481 167.509372,349.451887 111.507505,349.451887 C83.4945656,349.451887 62.1887246,342.413686 48.0862107,328.53746 C47.720957,328.169006 47.13589,328.137836 46.733586,328.465397 C46.6455453,328.545467 46.6295379,328.649559 46.573512,328.737637 C49.1400308,332.586361 51.7572397,336.39505 54.4251386,340.163704 C70.7606839,354.12 92.9149168,361.190229 120.575693,361.190229 C176.137357,361.190229 251.676248,332.613051 327.799409,282.769136 C377.862532,249.988254 411.686155,211.386243 428.541941,168.092099 C429.238262,162.767407 429.822532,157.394674 430.334769,151.973898 C430.238725,151.917848 430.182699,151.829771 430.070647,151.80575" id="Shape"></path>
                <path d="M431.839464,128.953616 C431.722221,128.907128 431.597405,128.882697 431.471294,128.881552 C430.994539,128.884908 430.583116,129.21684 430.478835,129.682257 C421.258577,174.713933 377.046155,224.717989 312.208207,263.400071 C231.875102,311.370335 158.713309,337.785608 106.19305,337.785608 C77.1876525,337.785608 54.6252311,329.882646 39.1220702,314.29291 C38.7642727,313.933656 38.1955096,313.895951 37.7934566,314.204832 C37.6894085,314.276896 37.6653974,314.405009 37.6013678,314.509101 C40.9949353,320.154074 44.6046026,325.767019 48.342329,331.323915 C62.9250647,344.719718 84.038817,351.5097 111.507505,351.5097 C167.869538,351.5097 250.379649,321.419189 321.684584,274.842152 C378.670906,237.617354 416.928577,195.428183 429.950591,155.729206 C430.855009,146.921446 431.551331,138.113686 431.959519,129.057707 C431.918915,129.030158 431.876079,129.006053 431.83146,128.985644" id="Shape"></path>
                <path d="M432.239649,116.983069 C432.135601,116.935026 432.063567,116.846949 431.943512,116.830935 L431.839464,116.830935 C431.360569,116.82823 430.945819,117.162846 430.847006,117.63164 C421.810832,163.864374 377.414325,212.675379 305.829261,255.080741 C228.497542,300.881093 152.894621,327.144233 98.3974492,327.144233 C70.6566359,327.144233 49.3427911,320.498377 35.0481885,307.406843 C34.8607365,307.234319 34.6145664,307.139819 34.3598706,307.14261 C34.1282485,307.142538 33.9041429,307.224839 33.7275786,307.374815 C33.6555453,307.430864 33.6475416,307.518942 33.5915157,307.591005 C35.3763401,310.737778 37.2171904,313.852522 39.1140665,316.975273 C55.0814418,332.188677 77.5318115,339.835414 106.19305,339.835414 C159.017449,339.835414 232.587431,313.316049 313.240684,265.161623 C377.158207,227 421.106506,177.884727 431.695397,133.04522 C431.962187,127.707184 432.138269,122.339788 432.223641,116.943034" id="Shape"></path>
                <path d="M431.767431,96.0846561 C431.655379,96.0286067 431.551331,95.932522 431.415268,95.932522 L431.415268,95.932522 C430.882384,95.9314465 430.440635,96.3453213 430.406802,96.8773545 C427.293364,143.102081 376.293808,199.727972 297.305323,244.647549 C217.772588,289.855379 144.666821,314.773333 91.4182255,314.773333 C62.1807209,314.773333 40.4987061,307.27873 26.9804621,292.4897 C26.7869559,292.279336 26.513875,292.160176 26.2281146,292.161411 C26.023685,292.159606 25.8232535,292.21809 25.6518484,292.329559 C25.5558041,292.401623 25.531793,292.513721 25.4677634,292.593792 C28.4051201,298.382892 31.5905915,304.171993 34.9441405,309.953086 C49.5989094,322.684303 70.9047505,329.170018 98.4054529,329.170018 C153.254787,329.170018 229.233882,302.79478 306.877745,256.810265 C377.526377,214.981411 421.794824,166.786949 432.19963,120.810441 C432.295675,117.071146 432.431738,113.347866 432.431738,109.600564 C432.431738,104.924444 432.183623,100.472522 431.799445,96.1407055" id="Shape"></path>
                <path d="M431.967523,100.400459 C431.666674,94.2727073 430.944635,88.1729343 429.806525,82.1443739 C429.707318,82.0806484 429.595264,82.0396359 429.478373,82.0242681 L429.390333,82.0242681 C428.873949,82.0652864 428.472612,82.4910208 428.461904,83.0091358 C427.56549,129.86642 378.038614,183.898025 288.917449,235.071111 C212.882329,278.781623 138.71207,303.843704 85.4874861,303.843704 C56.1379298,303.843704 34.6239926,296.26903 21.5459519,281.335873 C21.2123941,280.961455 20.6569862,280.88353 20.2333457,281.151711 C20.145305,281.20776 20.1212939,281.311852 20.0572643,281.391922 C22.1382255,285.923915 24.3392421,290.471922 26.7003327,295.003915 C40.6827911,309.416614 62.3968207,316.783104 91.4102218,316.783104 C145.034991,316.783104 218.484917,291.793086 298.273771,246.409101 C375.97366,202.226173 426.669076,146.633192 431.935508,100.376437" id="Shape"></path>
                <path d="M430.29475,85.3952381 C428.986565,77.627135 426.83968,70.0239755 423.891793,62.7192593 L423.891793,62.7192593 C423.799015,62.7043024 423.704442,62.7043024 423.611664,62.7192593 C423.111072,62.8663123 422.800904,63.3662363 422.891331,63.8802822 C431.551331,110.321199 375.229316,173.296684 279.417061,224.381693 C200.092421,266.731005 128.371294,290.023527 77.595841,290.023527 C47.0617375,290.023527 25.9159704,281.680176 14.7428096,265.201658 C14.5624838,264.934475 14.2645551,264.770546 13.9424399,264.76127 C13.7782953,264.759943 13.6162711,264.798405 13.4702218,264.873369 C13.3661738,264.929418 13.3181516,265.057531 13.2461183,265.137601 C15.604541,271.276343 18.2457609,277.476473 21.1697782,283.737989 C34.6880222,298.398907 56.2819963,305.869489 85.4874861,305.869489 C139.048226,305.869489 213.546636,280.703316 289.933919,236.824656 C378.198688,186.099965 427.837616,132.444691 430.29475,85.3952381" id="Shape"></path>
                <path d="M425.116359,65.7859612 C423.33397,60.9166638 421.1522,56.2031351 418.593346,51.693545 C418.545323,51.693545 418.529316,51.6294885 418.481294,51.6294885 C418.375418,51.629644 418.270176,51.6458418 418.16915,51.6775309 C417.689589,51.8332911 417.396639,52.3172008 417.480832,52.8145326 C425.484529,99.0792945 370.947338,158.755873 271.597449,212.451182 C195.050092,253.815626 121.872292,277.548536 70.8327172,277.548536 C43.1719409,277.548536 23.2987616,270.702504 11.749427,257.210617 C11.5522695,256.974585 11.2562027,256.844261 10.9490573,256.858307 C10.7691848,256.856787 10.5922297,256.90381 10.4368207,256.994427 C10.3647874,256.994427 10.34878,257.106526 10.2927542,257.162575 C11.4986445,260.664327 12.8085829,264.192769 14.2225693,267.747901 C26.164085,283.890123 47.365878,292.049312 77.5718299,292.049312 C128.683438,292.049312 200.700702,268.668713 280.361497,226.207302 C375.501442,175.498624 431.807449,112.899471 425.116359,65.7859612" id="Shape"></path>
                <path d="M419.553789,53.4871252 C417.235857,49.1370147 414.558644,44.9882727 411.550092,41.0841975 C411.433871,41.0943463 411.32021,41.1241272 411.213937,41.1722751 C410.772975,41.4298229 410.591435,41.9746703 410.789741,42.4453968 C426.869168,80.8792593 361.29488,151.453439 261.496784,203.154991 C187.014381,241.740988 115.973567,263.880494 66.5827542,263.880494 C34.4158965,263.880494 13.4061922,254.488219 5.83469501,236.720564 C5.67260339,236.347271 5.30508367,236.105297 4.89826248,236.104021 C4.79240543,236.104419 4.6871998,236.120611 4.5861183,236.152063 C4.46606285,236.200106 4.40203327,236.312205 4.30598891,236.384268 C6.12127526,244.191335 8.39017412,251.885834 11.1011275,259.428571 C23.154695,272.75231 43.1879482,279.566314 70.8087061,279.566314 C122.176433,279.566314 195.666377,255.745326 272.501867,214.228748 C371.955804,160.47739 426.733105,100.528571 419.513771,53.4791182" id="Shape"></path>
                <path d="M413.270887,43.494321 C410.59405,39.7711318 407.626029,36.2663808 404.394787,33.0130864 C404.2849,33.0268687 404.178819,33.0622438 404.082643,33.1171781 C403.678428,33.4097199 403.546182,33.9524961 403.770499,34.3983069 C422.451128,70.8544268 358.949797,136.952663 252.76475,191.568783 C179.130739,229.466173 109.242458,251.189312 61.0602033,251.189312 C32.1748614,251.189312 12.5818115,243.038131 4.41003697,227.640564 C4.18593346,227.224198 3.97783734,226.799824 3.76974122,226.367443 C3.58582332,225.987714 3.2068274,225.741109 2.78528651,225.726878 C2.69785337,225.712245 2.60859765,225.712245 2.52116451,225.726878 C2.41308206,225.774331 2.31522953,225.842313 2.23303142,225.927055 C2.93735675,230.306914 3.88979667,234.798871 5.01831793,239.362892 C13.702329,256.706173 34.8000739,265.858236 66.5667468,265.858236 C116.261701,265.858236 187.646673,243.646667 262.409205,204.908536 C361.655046,153.511252 427.061257,83.2013051 413.278891,43.4462787" id="Shape"></path>
                <path d="M406.21963,34.9668078 C402.501901,30.9565286 398.427238,27.2928856 394.046007,24.021164 C393.919074,24.0412501 393.796958,24.0846873 393.685841,24.1492769 C393.326007,24.4601088 393.229598,24.9789415 393.453734,25.3983774 C397.40756,32.7408466 397.831756,41.5646208 394.718318,51.6214815 C383.633198,87.4050088 330.040444,133.717813 254.813697,172.552028 C178.090259,212.138907 103.543826,235.80776 55.3775786,235.80776 C29.4936229,235.80776 12.8379298,229.153898 5.8667098,216.022328 C3.89494268,212.216756 2.60549584,208.094757 2.05695009,203.843598 C1.98149556,203.340675 1.54882138,202.969169 1.04048059,202.970829 L0.976451017,202.970829 C0.864399261,202.970829 0.792365989,203.066914 0.696321627,203.106949 C0.696321627,204.291993 0.536247689,205.46903 0.536247689,206.662081 C0.612202967,214.100182 1.34607058,221.516963 2.72926063,228.825608 C11.3492421,244.839718 31.4945471,253.255132 61.0441959,253.255132 C109.546599,253.255132 179.755028,231.443915 253.685176,193.410406 C359.518059,138.962434 423.059409,72.7681129 406.211627,35.006843" id="Shape"></path>
                <path d="M396.663216,52.1659612 C399.864695,41.9089242 399.408484,32.8529453 395.542699,25.1821869 C391.592445,22.1560516 387.418563,19.4338603 383.056932,17.0390123 C382.976895,17.0870547 382.864843,17.0390123 382.800813,17.1511111 C382.484523,17.5051898 382.45786,18.031997 382.736784,18.4162257 C383.072939,18.8806349 383.377079,19.337037 383.665213,19.8094533 C387.442957,26.1110053 388.003216,33.7737566 385.353993,42.5735097 C374.581017,78.3890653 311.719982,129.850406 232.56342,167.787831 C162.066858,201.55358 94.4436229,221.707337 51.7679113,221.707337 C27.1005176,221.707337 11.4612939,215.22963 5.29844732,202.45037 C3.79375231,199.327619 3.07341959,195.244021 3.15345656,190.439788 C3.16358783,189.901873 2.75314733,189.449146 2.21702403,189.406878 L2.13698706,189.406878 C2.0489464,189.406878 1.97691312,189.470935 1.89687616,189.494956 C1.055153,195.061304 0.608496763,200.680295 0.56025878,206.309771 C1.2034294,210.01627 2.39010077,213.607456 4.0818854,216.96716 C11.4292791,230.77933 28.6852495,237.809524 55.3775786,237.809524 C103.839963,237.809524 178.746562,214.092628 255.758133,174.36963 C331.465102,135.319224 385.458041,88.4779541 396.663216,52.1659612" id="Shape"></path>
                <path d="M387.290887,43.1660317 C390.116192,33.7897707 389.475896,25.5505115 385.402015,18.7765432 C385.241941,18.5123104 385.049852,18.2480776 384.881774,17.9758377 C377.422391,13.7381704 369.527745,10.3180482 361.334898,7.77485009 C361.23085,7.87093474 361.046765,7.86292769 360.990739,8.00705467 C360.792261,8.5006698 361.004343,9.06413984 361.478965,9.30419753 C365.288725,11.1858554 367.881922,13.1315697 369.138503,15.085291 C372.404011,20.1137213 373.012292,26.3752381 370.931331,33.677672 C361.326895,67.3073016 296.304861,118.904762 216.267893,156.441834 C150.01329,187.517213 89.8094824,205.340917 51.1916451,205.340917 C28.2610536,205.340917 13.4221996,199.087407 8.27582255,187.260988 C6.49099815,183.145362 6.23487985,177.652522 7.51547135,170.870547 C7.86763401,169.725538 8.24380776,168.580529 8.62798521,167.443527 C8.71399102,167.188723 8.69474548,166.910111 8.5745225,166.669564 C8.45429952,166.429018 8.24305096,166.246448 7.98768946,166.162399 C7.88527884,166.124356 7.77677989,166.10536 7.66754159,166.106349 C7.61151571,166.106349 7.58750462,166.194427 7.53147874,166.202434 C4.47186595,175.020116 2.40218957,184.150923 1.36062847,193.42642 C1.58473198,197.245785 2.16099815,200.632769 3.47360444,203.331146 C10.0046211,216.871076 26.2521257,223.733122 51.7679113,223.733122 C94.7637708,223.733122 162.683142,203.507302 233.45183,169.629453 C313.104621,131.483845 376.365841,79.4860317 387.290887,43.1660317" id="Shape"></path>
                <path d="M372.876229,34.2381658 C375.125268,26.3432099 374.476969,19.5211993 370.835287,13.9803175 C369.698762,12.2267725 367.713845,10.5292769 364.952569,8.88783069 C357.705776,6.37423043 350.274637,4.42799172 342.726303,3.06670194 C342.582237,3.19481481 342.350129,3.20282187 342.294104,3.39499118 C342.156049,3.90818313 342.43961,4.44051905 342.942403,4.61206349 C348.360906,6.49372134 351.946562,8.87181658 353.619335,11.6822928 C356.156506,15.9340388 356.492662,21.2907584 354.587782,27.5602822 C345.343512,58.3554145 287.388743,104.644198 213.698706,140.123457 C148.868762,171.35097 90.0415896,189.198695 52.2001109,189.198695 C31.5665804,189.198695 17.9763031,183.713862 12.9179667,173.344727 C10.7329575,168.868783 10.6529205,163.343915 12.6698521,156.938272 C12.8264815,156.424412 12.5565528,155.877315 12.0535675,155.689171 C11.9417397,155.644138 11.8219207,155.622343 11.7014048,155.625115 C11.7014048,155.625115 11.7014048,155.625115 11.6533826,155.625115 C8.99835917,161.615897 6.78346754,167.792364 5.02632163,174.105397 C4.38602588,179.6703 4.81822551,184.354427 6.41896488,188.037672 C11.9095009,200.696825 27.3886506,207.382716 51.2236599,207.382716 C90.7299076,207.382716 149.669131,189.943351 217.156303,158.291464 C298.954085,119.905644 363.015675,68.8606702 372.876229,34.2381658" id="Shape"></path>
                <path d="M356.53268,28.1447972 C358.58963,21.2907584 358.197449,15.3975661 355.36414,10.6413757 C353.763401,7.99104056 350.778022,5.7410582 346.560074,3.88342152 C334.271592,1.39146996 321.769091,0.106905135 309.230832,0.048042328 C309.149244,0.154468893 309.091881,0.27744137 309.062754,0.408359788 C309.029002,0.944663283 309.41817,1.41466747 309.951165,1.48130511 C322.100776,2.9145679 329.888373,6.08536155 332.505582,10.6413757 C334.602551,14.2845855 334.826654,18.8005644 333.169889,24.0692063 C324.581922,51.4213051 269.140314,93.7706173 198.451664,127.055944 C139.160277,154.960529 88.3528096,170.294039 55.3775786,170.294039 C37.1611645,170.294039 25.6758595,165.617919 21.2338078,156.401799 C18.9607579,151.701658 19.1128281,146.032663 21.6740111,139.586984 C21.8656572,139.106263 21.6658279,138.558225 21.2097967,138.313862 C21.0702203,138.244605 20.9173233,138.206365 20.7615896,138.201764 C16.52805,145.207131 12.869052,152.544264 9.82053604,160.141093 C8.76404806,165.481799 9.14822551,170.205961 11.1011275,174.193474 C16.5996673,185.475414 30.4300555,191.192451 52.2081146,191.192451 C90.3377264,191.192451 149.509057,173.232628 214.539094,141.925044 C288.741368,106.237601 347.128336,59.4363668 356.53268,28.1447972" id="Shape"></path>
                <path d="M335.114787,24.6777425 C336.93963,18.8486067 336.659501,13.7801411 334.266396,9.62447972 C331.681201,5.1405291 325.286248,1.99375661 315.257616,0.216190476 C312.584381,0.12010582 309.91915,-4.4408921e-16 307.253919,-4.4408921e-16 C294.762583,0.0322823701 282.2823,0.745969715 269.868651,2.1378836 C269.820628,2.27400353 269.732588,2.38610229 269.748595,2.53022928 C269.786451,3.05909989 270.22706,3.46840889 270.757061,3.46705467 L270.757061,3.46705467 C273.09414,3.37097002 275.359187,3.31492063 277.536192,3.31492063 C294.031811,3.31492063 304.644713,6.14141093 307.43,11.273933 C309.102773,14.3646561 309.230832,18.1439859 307.814177,22.4838095 C300.314713,45.4800705 250.18756,82.8169665 185.837837,113.28381 C135.142421,137.304974 89.161183,151.061093 59.6515527,151.061093 C44.2124214,151.061093 34.2638262,147.201693 30.838244,139.851217 C28.5331793,134.870829 29.7417375,128.42515 34.4479113,120.690335 C34.725741,120.231589 34.5996349,119.635838 34.1597782,119.329136 C34.0568326,119.26992 33.9420059,119.234364 33.8236229,119.225044 C28.4284289,126.090989 23.5437483,133.343474 19.2088725,140.924162 C17.1839372,147.12963 17.1919409,152.630476 19.4489834,157.32261 C24.2512015,167.291393 36.3607948,172.351852 55.417597,172.351852 C88.6489464,172.351852 139.760555,156.938272 199.292052,128.91358 C270.524954,95.3880423 326.366747,52.5262787 335.114787,24.6777425" id="Shape"></path>
                <path d="M278.432606,1.30514991 C263.789298,2.59796353 249.232959,4.73674746 234.83647,7.71079365 C234.783536,7.82635212 234.756232,7.95200383 234.756433,8.07911817 C234.855246,8.54791269 235.269995,8.88252828 235.748891,8.87982363 L235.892957,8.87982363 C242.121025,7.92656378 248.409346,7.42082526 254.709649,7.3664903 C267.243438,7.3664903 275.391201,10.0808818 277.624233,15.0052205 C285.211738,31.7719929 239.310536,69.5973192 175.280961,99.287478 C132.669279,119.07291 90.9620148,131.355732 66.4306839,131.355732 C54.889353,131.355732 47.5419593,128.657354 45.1728651,123.540847 C42.059427,116.830935 47.3738817,106.085467 60.1317745,93.2982011 C60.5192926,92.9053208 60.5192926,92.2738326 60.1317745,91.8809524 C60.0198342,91.8002736 59.891328,91.7455672 59.7556007,91.7208113 C49.2858753,101.120021 39.7294806,111.490084 31.2144177,122.692099 C27.5967468,129.762328 26.7483549,135.84769 29.0294085,140.764021 C32.7751386,148.843139 43.3560259,153.110899 59.643549,153.110899 C89.425305,153.110899 135.742699,139.266702 186.694233,115.133439 C252.500628,83.9619753 301.947468,46.9853968 309.727061,23.1243739 C311.3278,18.2240564 311.151719,13.908254 309.198817,10.3130864 C305.260998,3.02666667 290.534196,1.3772134 278.432606,1.30514991" id="Shape"></path>
                <path d="M279.457079,14.1644797 C276.839871,8.38338624 268.251904,5.35671958 254.693641,5.35671958 C251.388115,5.35671958 247.722421,5.58892416 243.888651,5.94924162 C223.569879,9.63734442 203.553446,14.8322384 184.004991,21.4909347 C184.004991,21.6270547 183.932957,21.7471605 184.004991,21.8752734 C184.183927,22.3970087 184.738617,22.6885189 185.269575,22.5398589 C201.477061,17.6075132 215.571571,15.0052205 226.016396,15.0052205 C235.332699,15.0052205 241.22342,17.0950617 243.040259,21.0345326 C248.914972,33.7097002 213.458595,62.7112522 164.01976,85.675485 C131.148577,100.944938 98.7496118,110.433298 79.4687061,110.433298 C70.5685952,110.433298 64.9179852,108.407513 63.1491682,104.588148 C60.1077634,98.0223633 68.0874492,86.5722751 85.0312754,73.1684656 C85.4610987,72.8244709 85.5423884,72.2021669 85.2153604,71.759224 C85.1273198,71.6471252 84.9832532,71.6551323 84.8631978,71.5830688 C73.6236938,79.5869747 62.9972589,88.4192877 53.0725139,98.0063492 C43.7321996,108.903951 40.3226248,117.959929 43.3240111,124.42963 C46.0852865,130.394885 53.8568762,133.421552 66.4226802,133.421552 C91.6023105,133.421552 132.613253,121.362928 176.129353,101.169136 C243.360407,69.9416226 287.796932,32.5486772 279.465083,14.1724868" id="Shape"></path>
                <path d="M244.849094,20.1777778 C242.648078,15.373545 236.293142,12.9714286 225.992384,12.9714286 C218.500924,12.9714286 209.088577,14.3166138 198.491682,16.8148148 C153.246784,30.4268078 110.122865,51.701552 75.7149723,78.4291005 C63.5653604,89.5909347 58.3709612,99.0953086 61.3083179,105.444903 C63.4613124,110.105009 69.5761368,112.46709 79.4687061,112.46709 C99.0217375,112.46709 131.748854,102.906667 164.868152,87.5171076 C217.028244,63.2557319 251.412126,34.3422575 244.849094,20.1777778 M152.230314,71.4229277 C130.172126,81.5598589 108.970333,87.8534039 96.8847505,87.8534039 C91.8904436,87.8534039 88.7529945,86.7804586 87.8165619,84.7386596 C84.7031238,77.9486772 104.624325,59.9728395 139.320351,44.0468078 C160.610185,34.270194 181.55586,28.1928395 193.993604,28.1928395 C199.380092,28.1928395 202.749649,29.3298413 203.734104,31.4757319 C206.703475,37.9454321 187.854769,55.0565079 152.230314,71.4229277" id="Shape"></path>
                <path d="M205.574954,30.5949559 C204.214325,27.6323457 200.316525,26.1270194 193.993604,26.1270194 C181.283734,26.1270194 160.009908,32.2764374 138.479963,42.1411287 C109.082384,55.6410229 81.4056007,75.562575 85.9757116,85.523351 C87.2803142,88.3738624 90.9540111,89.8151323 96.8847505,89.8151323 C109.234455,89.8151323 130.772403,83.4495238 153.070702,73.2004938 C182.684381,59.5885009 210.177079,40.6037743 205.574954,30.5629277 M177.185841,39.7790476 C176.14536,43.5343563 165.676525,51.7896296 147.676211,60.2370723 C133.661738,66.8428924 120.183512,71.1026455 113.332348,71.1026455 C111.419464,71.1026455 110.082847,70.742328 109.666654,70.1257848 C109.466579,69.7846101 109.43986,69.3687924 109.594621,69.0047972 C110.667116,65.1453968 121.360055,56.5538272 139.072237,48.186455 C152.678521,41.7808113 166.068706,37.633157 173.167985,37.633157 C175.232939,37.633157 176.665601,38.0094885 177.105804,38.6740741 C177.306598,38.9999336 177.336452,39.403126 177.185841,39.7550265" id="Shape"></path>
                <path d="M178.794584,37.5691005 C177.922181,36.2639506 176.081331,35.6233862 173.191996,35.6233862 C165.820591,35.6233862 152.094251,39.8431041 138.231848,46.3768607 C121.656192,54.1757319 109.090388,63.2557319 107.641719,68.4603175 C107.327746,69.3932506 107.454358,70.4183549 107.985878,71.2467725 C108.83427,72.5118871 110.579076,73.1284303 113.340351,73.1284303 C120.455638,73.1284303 134.278022,68.7886067 148.556617,62.0706878 C162.619113,55.4488536 177.538004,46.1526631 179.15475,40.3235273 C179.464359,39.4007664 179.33772,38.3872255 178.810591,37.5691005" id="Shape"></path>
            </g>
        </g>
    </g>
</svg>